<svg width="131" height="131" viewBox="0 0 131 131" fill="none" xmlns="http://www.w3.org/2000/svg">
<rect x="0.00195312" width="131" height="131" rx="30" fill="url(#paint0_linear_2084_32091)"/>
<path d="M103.502 103.5H28.502" stroke="white" stroke-width="3" stroke-linecap="round"/>
<path d="M96.002 103.5V62.25" stroke="white" stroke-width="3" stroke-linecap="round"/>
<path d="M36.002 103.5V62.25" stroke="white" stroke-width="3" stroke-linecap="round"/>
<path d="M82.9811 28.5H49.0225C44.5119 28.5 42.2566 28.5 40.4442 29.6201C38.6318 30.7402 37.6232 32.7574 35.6061 36.7918L28.9928 53.5093C28.6685 54.3291 28.4641 55.21 28.6191 56.0779C29.2459 59.5866 32.3126 62.25 36.0016 62.25C40.1438 62.25 43.5016 58.8921 43.5016 54.75C43.5016 58.8921 46.8595 62.25 51.0016 62.25C55.1438 62.25 58.5016 58.8921 58.5016 54.75C58.5016 58.8921 61.8595 62.25 66.0016 62.25C70.1438 62.25 73.5016 58.8921 73.5016 54.75C73.5016 58.8921 76.8595 62.25 81.0016 62.25C85.1438 62.25 88.5016 58.8921 88.5016 54.75C88.5016 58.8921 91.8595 62.25 96.0016 62.25C99.6906 62.25 102.758 59.5866 103.384 56.0779C103.539 55.21 103.335 54.3291 103.011 53.5093L96.3975 36.7918C94.3803 32.7574 93.3717 30.7402 91.5593 29.6201C89.747 28.5 87.4917 28.5 82.9811 28.5Z" fill="white" fill-opacity="0.3" stroke="white" stroke-width="3" stroke-linejoin="round"/>
<path d="M56.627 101.625V90.375C56.627 86.8702 56.627 85.1178 57.3806 83.8125C57.8743 82.9574 58.5843 82.2473 59.4395 81.7536C60.7447 81 62.4971 81 66.002 81C69.5068 81 71.2592 81 72.5645 81.7536C73.4196 82.2473 74.1296 82.9574 74.6233 83.8125C75.377 85.1178 75.377 86.8702 75.377 90.375V101.625" stroke="white" stroke-width="3" stroke-linecap="round"/>
<defs>
<linearGradient id="paint0_linear_2084_32091" x1="0.00195313" y1="0" x2="138.502" y2="151" gradientUnits="userSpaceOnUse">
<stop stop-color="#74B4FF"/>
<stop offset="1" stop-color="#51D696"/>
<stop offset="1" stop-color="#5FC9BF"/>
</linearGradient>
</defs>
</svg>
