<svg width="67" height="99" viewBox="0 0 67 99" fill="none" xmlns="http://www.w3.org/2000/svg">
<path d="M52.582 41.25H14.082C10.1929 41.25 8.2484 41.25 7.04022 42.3835C5.83203 43.5171 5.83203 45.3415 5.83203 48.9903V50.8873C5.83203 53.7414 5.83203 55.1684 6.54593 56.3514C7.25983 57.5344 8.56408 58.2686 11.1726 59.737L19.1834 64.2466C20.9335 65.2318 21.8086 65.7244 22.4352 66.2683C23.74 67.4011 24.5432 68.7322 24.9072 70.3647C25.082 71.1487 25.082 72.066 25.082 73.9006L25.082 81.2416C25.082 83.7429 25.082 84.9935 25.7748 85.9685C26.4676 86.9435 27.6981 87.4245 30.159 88.3865C35.3252 90.4062 37.9083 91.416 39.7452 90.267C41.582 89.1181 41.582 86.4926 41.582 81.2416V73.9006C41.582 72.066 41.582 71.1487 41.7568 70.3647C42.1208 68.7322 42.9241 67.4011 44.2289 66.2683C44.8554 65.7244 45.7305 65.2318 47.4807 64.2465L55.4915 59.737C58.1 58.2686 59.4042 57.5344 60.1181 56.3514C60.832 55.1684 60.832 53.7414 60.832 50.8873V48.9903C60.832 45.3415 60.832 43.5171 59.6238 42.3835C58.4157 41.25 56.4711 41.25 52.582 41.25Z" stroke="white" stroke-width="3"/>
<path d="M33.332 4.5C22.2863 4.5 13.332 13.4543 13.332 24.5C13.332 31.4821 16.9098 37.6285 22.332 41.206H44.332C49.7543 37.6285 53.332 31.4821 53.332 24.5C53.332 13.4543 44.3777 4.5 33.332 4.5Z" fill="white" fill-opacity="0.26" stroke="white" stroke-width="3"/>
<path d="M27.332 29H33.332" stroke="white" stroke-width="3" stroke-linecap="round"/>
<path d="M29.332 24.5V16.9C29.332 16.5284 29.332 16.3426 29.3567 16.1871C29.4922 15.3313 30.1634 14.6602 31.0192 14.5246C31.1746 14.5 31.3604 14.5 31.732 14.5H36.332C39.0935 14.5 41.332 16.7386 41.332 19.5C41.332 22.2614 39.0935 24.5 36.332 24.5H29.332ZM29.332 24.5V34.5M29.332 24.5H27.332" stroke="white" stroke-width="3" stroke-linecap="round"/>
</svg>
