<svg width="88" height="88" viewBox="0 0 88 88" fill="none" xmlns="http://www.w3.org/2000/svg">
<path d="M73.3327 80.6668V58.6668C73.3327 42.4665 60.1997 29.3335 43.9993 29.3335C27.799 29.3335 14.666 42.4665 14.666 58.6668V80.6668H73.3327Z" fill="white" fill-opacity="0.26" stroke="white" stroke-width="3"/>
<path d="M52.3984 42.1665C56.075 43.6547 59.0108 46.5905 60.499 50.2671" stroke="white" stroke-width="3" stroke-linecap="round"/>
<path d="M7.33398 80.6665H80.6673" stroke="white" stroke-width="3" stroke-linecap="round"/>
<path d="M44 7.3335V18.3335" stroke="white" stroke-width="3" stroke-linecap="round"/>
<path d="M77 22L71.5 27.5" stroke="white" stroke-width="3" stroke-linecap="round"/>
<path d="M11 22L16.5 27.5" stroke="white" stroke-width="3" stroke-linecap="round"/>
<path d="M49.5 64.1665C49.5 67.2041 47.0376 69.6665 44 69.6665C40.9624 69.6665 38.5 67.2041 38.5 64.1665C38.5 61.1289 40.9624 58.6665 44 58.6665C47.0376 58.6665 49.5 61.1289 49.5 64.1665Z" fill="white" stroke="white" stroke-width="3"/>
<path d="M44 69.6665V80.6665" stroke="white" stroke-width="3" stroke-linecap="round"/>
</svg>
