<svg width="62" height="81" viewBox="0 0 62 81" fill="none" xmlns="http://www.w3.org/2000/svg">
<path d="M30.877 60.0879V68.9651" stroke="white" stroke-width="3" stroke-linecap="round"/>
<path d="M42.3594 78.8072H19.3945L20.5074 73.2428C20.8141 71.7093 22.1606 70.6055 23.7244 70.6055H38.0296C39.5934 70.6055 40.9399 71.7093 41.2466 73.2428L42.3594 78.8072Z" stroke="white" stroke-width="3" stroke-linecap="round" stroke-linejoin="round"/>
<path d="M50.5618 78.8071H11.1934" stroke="white" stroke-width="3" stroke-linecap="round"/>
<path d="M12.7891 20.0921C12.7891 10.1001 20.8892 2 30.8812 2C40.8732 2 48.9733 10.1001 48.9733 20.0921V30.9474C48.9733 40.9394 40.8732 49.0395 30.8812 49.0395C20.8892 49.0395 12.7891 40.9394 12.7891 30.9474V20.0921Z" fill="white" fill-opacity="0.26" stroke="white" stroke-width="3"/>
<path d="M34.499 20.0923L48.9727 20.0923" stroke="white" stroke-width="3" stroke-linecap="round"/>
<path d="M34.499 30.9473L48.9727 30.9473" stroke="white" stroke-width="3" stroke-linecap="round"/>
<path d="M59.8283 27.3291V30.9475C59.8283 46.9347 46.8682 59.8949 30.881 59.8949C14.8938 59.8949 1.93359 46.9347 1.93359 30.9475V27.3291" stroke="white" stroke-width="3" stroke-linecap="round"/>
</svg>
