<svg width="98" height="98" viewBox="0 0 98 98" fill="none" xmlns="http://www.w3.org/2000/svg">
<path d="M39.9408 15.8871C42.2433 13.925 43.3945 12.9439 44.5982 12.3686C47.3822 11.0379 50.6187 11.0379 53.4026 12.3686C54.6063 12.9439 55.7576 13.925 58.06 15.8871C58.9764 16.6681 59.4346 17.0586 59.924 17.3866C61.0457 18.1384 62.3055 18.6602 63.6303 18.9218C64.2083 19.0359 64.8084 19.0838 66.0086 19.1795C69.0241 19.4202 70.5319 19.5405 71.7898 19.9848C74.6993 21.0125 76.9879 23.301 78.0155 26.2105C78.4598 27.4684 78.5802 28.9762 78.8208 31.9918C78.9166 33.192 78.9645 33.7921 79.0786 34.37C79.3401 35.6949 79.8619 36.9546 80.6138 38.0764C80.9418 38.5657 81.3322 39.0239 82.1132 39.9403C84.0753 42.2428 85.0564 43.394 85.6317 44.5977C86.9624 47.3817 86.9624 50.6182 85.6317 53.4022C85.0564 54.6058 84.0753 55.7571 82.1132 58.0595C81.3322 58.9759 80.9418 59.4341 80.6138 59.9235C79.8619 61.0452 79.3401 62.305 79.0786 63.6298C78.9645 64.2078 78.9166 64.8079 78.8208 66.0081C78.5802 69.0236 78.4598 70.5314 78.0155 71.7893C76.9879 74.6988 74.6993 76.9874 71.7898 78.015C70.5319 78.4594 69.0241 78.5797 66.0086 78.8203C64.8084 78.9161 64.2083 78.964 63.6303 79.0781C62.3055 79.3396 61.0457 79.8615 59.924 80.6133C59.4346 80.9413 58.9764 81.3318 58.06 82.1127C55.7576 84.0749 54.6063 85.0559 53.4026 85.6313C50.6187 86.9619 47.3822 86.9619 44.5982 85.6313C43.3945 85.0559 42.2433 84.0749 39.9408 82.1127C39.0244 81.3318 38.5662 80.9413 38.0768 80.6133C36.9551 79.8615 35.6953 79.3396 34.3705 79.0781C33.7926 78.964 33.1925 78.9161 31.9923 78.8203C28.9767 78.5797 27.4689 78.4594 26.211 78.015C23.3015 76.9874 21.013 74.6988 19.9853 71.7893C19.541 70.5314 19.4207 69.0236 19.18 66.0081C19.0842 64.8079 19.0364 64.2078 18.9223 63.6298C18.6607 62.305 18.1389 61.0452 17.387 59.9235C17.0591 59.4341 16.6686 58.9759 15.8876 58.0595C13.9255 55.7571 12.9444 54.6058 12.3691 53.4022C11.0384 50.6182 11.0384 47.3817 12.3691 44.5977C12.9444 43.394 13.9255 42.2428 15.8876 39.9403C16.6686 39.0239 17.0591 38.5657 17.387 38.0764C18.1389 36.9546 18.6607 35.6948 18.9223 34.37C19.0364 33.7921 19.0842 33.192 19.18 31.9918C19.4207 28.9762 19.541 27.4684 19.9853 26.2105C21.013 23.301 23.3015 21.0125 26.211 19.9848C27.4689 19.5405 28.9767 19.4202 31.9923 19.1795C33.1925 19.0838 33.7926 19.0359 34.3705 18.9218C35.6953 18.6602 36.9551 18.1384 38.0769 17.3866C38.5662 17.0586 39.0244 16.6681 39.9408 15.8871Z" fill="white" fill-opacity="0.26" stroke="white" stroke-width="3"/>
<path d="M36.75 61.25L61.25 36.75" stroke="white" stroke-width="3" stroke-linecap="round"/>
<path d="M63.2917 59.2083C63.2917 61.4635 61.4635 63.2917 59.2083 63.2917C56.9532 63.2917 55.125 61.4635 55.125 59.2083C55.125 56.9532 56.9532 55.125 59.2083 55.125C61.4635 55.125 63.2917 56.9532 63.2917 59.2083Z" fill="white"/>
<path d="M42.8757 38.7918C42.8757 41.047 41.0475 42.8752 38.7923 42.8752C36.5372 42.8752 34.709 41.047 34.709 38.7918C34.709 36.5367 36.5372 34.7085 38.7923 34.7085C41.0475 34.7085 42.8757 36.5367 42.8757 38.7918Z" fill="white"/>
</svg>
