<svg width="281" height="318" viewBox="0 0 281 318" fill="none" xmlns="http://www.w3.org/2000/svg">
<path d="M37.8954 11.8664C6.04036 22.7466 -2.45254 49.8639 1.75144 73.5176C5.91755 96.9579 32.3834 116.397 69.1484 112.696C59.1628 114.118 28.3254 127.788 23.6916 156.29C18.889 185.83 34.902 202.87 53.871 211.075C83.6347 223.95 115.472 221.888 142.788 218.383C126.528 228.861 103.507 248.03 102.176 275.342C100.845 302.655 125.482 327.02 171.411 314.361C217.34 301.702 303.153 256.156 275.285 189.056C264.109 162.149 232.558 153.737 214.473 151.274C206.644 150.208 183.385 147.931 150.97 149.987C189.595 143.771 248.751 120.75 249.003 77.3227C249.506 -9.53097 94.8918 -7.60092 37.8954 11.8664Z" fill="url(#paint0_linear_2084_32872)"/>
<defs>
<linearGradient id="paint0_linear_2084_32872" x1="213.029" y1="-42.5063" x2="108.93" y2="410.321" gradientUnits="userSpaceOnUse">
<stop stop-color="#CAD2FF"/>
<stop offset="1" stop-color="#A7E9BE"/>
</linearGradient>
</defs>
</svg>
