<svg width="389" height="235" viewBox="0 0 389 235" fill="none" xmlns="http://www.w3.org/2000/svg">
<g filter="url(#filter0_d_2448_27330)">
<path d="M40.0093 47.1098C41.4145 31.5852 42.1171 23.823 47.3765 19.4367C52.636 15.0503 60.3982 15.7529 75.9228 17.1582L279.693 35.6026C295.218 37.0078 302.98 37.7104 307.366 42.9699C311.752 48.2293 311.05 55.9915 309.645 71.5161L309.394 74.2791C307.989 89.8037 307.287 97.566 302.027 101.952C296.768 106.339 289.006 105.636 273.481 104.231L69.7108 85.7863C54.1863 84.3811 46.424 83.6785 42.0377 78.4191C37.6514 73.1597 38.354 65.3974 39.7592 49.8728L40.0093 47.1098Z" fill="white" shape-rendering="crispEdges"/>
<rect x="63.1309" y="37.3096" width="11.0726" height="11.0726" rx="2.76815" transform="rotate(5.17209 63.1309 37.3096)" fill="#66AA61"/>
<path d="M81.7228 49.2659L82.5698 39.9092L85.841 40.2053C86.4928 40.2643 87.0201 40.4257 87.4231 40.6894C87.8263 40.9501 88.1144 41.2786 88.2874 41.675C88.4606 42.0684 88.5265 42.4935 88.4851 42.9504C88.4487 43.3525 88.3471 43.678 88.1803 43.927C88.0164 44.1762 87.8119 44.3665 87.5666 44.4978C87.3244 44.6295 87.066 44.7197 86.7913 44.7685L86.7831 44.8599C87.0677 44.9041 87.3464 45.0306 87.6192 45.2396C87.8921 45.4485 88.1105 45.7324 88.2745 46.0912C88.4386 46.4499 88.4983 46.876 88.4536 47.3694C88.4112 47.8385 88.2664 48.2507 88.0193 48.606C87.7722 48.9614 87.4087 49.2279 86.9289 49.4055C86.4492 49.5832 85.8408 49.6387 85.1037 49.572L81.7228 49.2659ZM82.9469 48.3634L85.1947 48.5668C85.9348 48.6338 86.4731 48.5382 86.8097 48.2801C87.1496 48.0191 87.3382 47.683 87.3754 47.2719C87.4041 46.9551 87.3498 46.6554 87.2127 46.3727C87.0758 46.0871 86.8654 45.85 86.5815 45.6615C86.2979 45.4701 85.9521 45.3558 85.5439 45.3189L83.2413 45.1105L82.9469 48.3634ZM83.3306 44.1236L85.4322 44.3139C85.7733 44.3447 86.087 44.3056 86.3733 44.1964C86.6626 44.0874 86.899 43.9185 87.0825 43.6894C87.269 43.4606 87.3771 43.1818 87.4069 42.8528C87.4441 42.4416 87.3326 42.0799 87.0722 41.7677C86.812 41.4524 86.3713 41.2667 85.75 41.2105L83.6118 41.0169L83.3306 44.1236ZM91.2815 45.6171L93.2917 45.7991C94.1141 45.8735 94.7242 46.1391 95.1219 46.5958C95.5197 47.0525 95.6897 47.6007 95.6318 48.2403C95.5937 48.6606 95.4617 49.034 95.2356 49.3606C95.0098 49.684 94.6988 49.9307 94.3026 50.1006C93.9068 50.2674 93.4347 50.326 92.8864 50.2764L89.9442 50.0101L90.5794 42.9926L91.6576 43.0902L91.1134 49.1026L92.9774 49.2713C93.4038 49.3099 93.7643 49.2289 94.0588 49.0283C94.3534 48.8278 94.5166 48.5508 94.5486 48.1975C94.5822 47.8259 94.4726 47.5105 94.2197 47.2511C93.9668 46.9918 93.6272 46.8428 93.2007 46.8042L91.1905 46.6223L91.2815 45.6171ZM96.5414 50.6073L97.1766 43.5897L98.2548 43.6873L97.6196 50.7048L96.5414 50.6073ZM103.815 51.2656L104.361 45.2349L102.497 45.0662C102.076 45.0282 101.737 45.0957 101.479 45.2689C101.22 45.442 101.076 45.6992 101.045 46.0403C101.015 46.3753 101.099 46.6486 101.298 46.86C101.5 47.0718 101.791 47.1949 102.172 47.2293L104.438 47.4344L104.347 48.4396L102.081 48.2344C101.606 48.1914 101.204 48.0706 100.875 47.8719C100.546 47.6732 100.302 47.4102 100.145 47.0827C99.9872 46.7521 99.9279 46.3721 99.9668 45.9427C100.006 45.5102 100.137 45.1474 100.36 44.8544C100.583 44.5614 100.884 44.3475 101.261 44.2128C101.642 44.0783 102.083 44.0339 102.586 44.0794L105.473 44.3407L104.838 51.3582L103.815 51.2656ZM99.1364 50.8421L101.444 47.532L102.614 47.6378L100.306 50.948L99.1364 50.8421ZM106.818 51.5374L107.453 44.5199L110.322 44.7796C111.077 44.848 111.662 45.0728 112.076 45.4542C112.489 45.8356 112.671 46.3065 112.62 46.8669C112.582 47.2933 112.425 47.6124 112.151 47.824C111.878 48.0326 111.539 48.1601 111.136 48.2065C111.391 48.2665 111.634 48.3806 111.865 48.5489C112.098 48.7174 112.284 48.9369 112.422 49.2073C112.561 49.4748 112.613 49.7927 112.58 50.1613C112.547 50.5207 112.427 50.8337 112.219 51.1005C112.01 51.3672 111.728 51.5673 111.372 51.7009C111.016 51.8345 110.6 51.8798 110.125 51.8368L106.818 51.5374ZM107.93 50.6432L110.215 50.85C110.586 50.8836 110.885 50.8216 111.111 50.664C111.337 50.5063 111.464 50.2752 111.492 49.9707C111.525 49.6082 111.445 49.3139 111.254 49.0878C111.063 48.8586 110.781 48.7272 110.41 48.6935L108.125 48.4868L107.93 50.6432ZM108.21 47.5548L110.056 47.7218C110.345 47.748 110.597 47.7309 110.811 47.6705C111.026 47.607 111.194 47.5056 111.318 47.3662C111.444 47.2242 111.517 47.0495 111.535 46.8424C111.562 46.547 111.46 46.3043 111.228 46.1145C110.997 45.9216 110.665 45.8056 110.233 45.7664L108.387 45.5994L108.21 47.5548ZM113.42 52.1351L113.511 51.13L113.767 51.1531C113.977 51.1721 114.156 51.1469 114.304 51.0773C114.452 51.0047 114.578 50.8672 114.682 50.6648C114.79 50.4596 114.883 50.1702 114.963 49.7966C115.046 49.4203 115.125 48.9392 115.2 48.3533L115.609 45.2582L120.287 45.6816L119.652 52.6991L118.574 52.6015L119.118 46.5891L116.541 46.3559L116.205 48.8496C116.129 49.4231 116.031 49.9255 115.912 50.3569C115.797 50.7856 115.646 51.1405 115.461 51.4216C115.279 51.703 115.052 51.9066 114.779 52.0324C114.507 52.1582 114.176 52.2034 113.786 52.1682L113.42 52.1351ZM124.559 53.2907C123.883 53.2295 123.313 53.0275 122.85 52.6846C122.39 52.339 122.052 51.8846 121.836 51.3215C121.623 50.7556 121.549 50.1133 121.614 49.3945C121.679 48.6757 121.867 48.054 122.179 47.5295C122.494 47.0022 122.901 46.6061 123.401 46.3412C123.905 46.0735 124.473 45.9684 125.106 46.0257C125.472 46.0588 125.827 46.1524 126.173 46.3065C126.518 46.4606 126.824 46.6879 127.092 46.9885C127.36 47.286 127.56 47.6665 127.693 48.13C127.827 48.5934 127.863 49.1526 127.804 49.8074L127.763 50.2643L122.354 49.7746L122.438 48.8426L126.751 49.233C126.787 48.8371 126.739 48.4766 126.609 48.1516C126.482 47.8268 126.282 47.5615 126.009 47.3556C125.739 47.15 125.409 47.0296 125.019 46.9943C124.589 46.9554 124.208 47.0284 123.875 47.2132C123.545 47.3952 123.281 47.6477 123.083 47.9706C122.885 48.2935 122.769 48.6484 122.734 49.0352L122.677 49.6566C122.629 50.1865 122.68 50.6441 122.83 51.0291C122.982 51.4115 123.214 51.7134 123.526 51.9351C123.838 52.1537 124.212 52.2827 124.647 52.3222C124.93 52.3478 125.19 52.3314 125.425 52.2728C125.664 52.2116 125.875 52.1078 126.057 51.9615C126.239 51.8122 126.387 51.6199 126.501 51.3845L127.516 51.7712C127.374 52.1145 127.162 52.4085 126.879 52.6531C126.596 52.8947 126.257 53.0728 125.863 53.1876C125.469 53.2994 125.035 53.3337 124.559 53.2907ZM134.177 49.9789L134.086 50.9841L130.212 50.6334L130.303 49.6283L134.177 49.9789ZM130.832 46.6361L130.197 53.6536L129.118 53.556L129.754 46.5385L130.832 46.6361ZM135.273 47.038L134.637 54.0556L133.559 53.958L134.194 46.9404L135.273 47.038ZM137.829 52.7415L141.701 47.6199L142.944 47.7324L142.308 54.7499L141.23 54.6523L141.721 49.2247L137.868 54.3479L136.607 54.2338L137.242 47.2163L138.32 47.3139L137.829 52.7415ZM147.212 55.3412C146.536 55.28 145.966 55.0779 145.503 54.735C145.043 54.3894 144.705 53.935 144.489 53.3719C144.276 52.8061 144.202 52.1637 144.267 51.4449C144.332 50.7261 144.52 50.1045 144.832 49.5799C145.147 49.0526 145.554 48.6565 146.054 48.3916C146.557 48.124 147.126 48.0188 147.759 48.0761C148.125 48.1092 148.48 48.2028 148.825 48.3569C149.171 48.511 149.477 48.7383 149.745 49.0389C150.013 49.3365 150.213 49.717 150.346 50.1804C150.479 50.6438 150.516 51.203 150.457 51.8578L150.416 52.3147L145.006 51.8251L145.091 50.8931L149.403 51.2834C149.439 50.8875 149.392 50.527 149.262 50.202C149.135 49.8773 148.934 49.612 148.661 49.4061C148.391 49.2004 148.061 49.08 147.672 49.0447C147.242 49.0058 146.861 49.0788 146.528 49.2636C146.198 49.4457 145.934 49.6981 145.736 50.0211C145.538 50.344 145.421 50.6988 145.386 51.0857L145.33 51.707C145.282 52.237 145.333 52.6945 145.482 53.0796C145.635 53.4619 145.867 53.7639 146.179 53.9855C146.491 54.2042 146.864 54.3332 147.3 54.3726C147.583 54.3982 147.843 54.3818 148.078 54.3233C148.317 54.262 148.528 54.1582 148.71 54.012C148.892 53.8627 149.04 53.6703 149.153 53.4349L150.169 53.8216C150.027 54.165 149.815 54.459 149.531 54.7036C149.249 54.9451 148.91 55.1233 148.516 55.2381C148.122 55.3498 147.687 55.3842 147.212 55.3412ZM80.1343 65.1876L80.7695 58.17L86.2885 58.6696L85.6533 65.6871L84.5751 65.5895L85.1193 59.5771L81.7567 59.2727L81.2125 65.2852L80.1343 65.1876ZM90.46 66.2696C89.8265 66.2123 89.2843 66.0112 88.8334 65.6664C88.3855 65.3218 88.0521 64.8663 87.8332 64.2999C87.6173 63.7338 87.5421 63.0883 87.6077 62.3634C87.6739 61.6324 87.8641 61.0063 88.1785 60.4851C88.4958 59.9641 88.9058 59.5744 89.4082 59.3159C89.9137 59.0576 90.4832 58.9572 91.1167 59.0145C91.7502 59.0719 92.2909 59.2728 92.7388 59.6173C93.1897 59.9622 93.5229 60.4192 93.7386 60.9883C93.9573 61.5578 94.0335 62.208 93.9673 62.939C93.9017 63.6639 93.7104 64.2853 93.3933 64.8032C93.0792 65.3214 92.6694 65.7096 92.164 65.9678C91.6615 66.2263 91.0935 66.3269 90.46 66.2696ZM90.5477 65.301C91.0289 65.3446 91.436 65.2571 91.769 65.0385C92.102 64.8199 92.3614 64.5163 92.547 64.1278C92.7326 63.7393 92.8467 63.3105 92.8891 62.8414C92.9316 62.3724 92.8965 61.9285 92.784 61.5099C92.6714 61.0913 92.4711 60.7431 92.183 60.4652C91.8949 60.1873 91.5103 60.0266 91.029 59.9831C90.5478 59.9395 90.1405 60.0285 89.8073 60.2502C89.474 60.4718 89.2144 60.7784 89.0285 61.17C88.8426 61.5616 88.7284 61.9919 88.6859 62.461C88.6435 62.93 88.6787 63.3723 88.7915 63.7879C88.9044 64.2034 89.105 64.5486 89.3933 64.8234C89.6817 65.0983 90.0664 65.2575 90.5477 65.301ZM94.926 60.4648L95.017 59.4597L100.719 59.9758L100.628 60.9809L98.3251 60.7724L97.7809 66.7849L96.7027 66.6873L97.2469 60.6749L94.926 60.4648ZM101.418 69.7672L102.291 60.1181L103.333 60.2124L103.232 61.3272L103.36 61.3387C103.45 61.2241 103.574 61.0787 103.731 60.9025C103.892 60.7236 104.111 60.5715 104.39 60.4462C104.672 60.3182 105.041 60.2749 105.498 60.3162C106.089 60.3697 106.596 60.5646 107.02 60.9008C107.444 61.2371 107.758 61.6877 107.962 62.2527C108.166 62.8178 108.234 63.4688 108.167 64.2059C108.1 64.9491 107.915 65.5818 107.613 66.1042C107.311 66.6234 106.923 67.012 106.448 67.27C105.974 67.5249 105.444 67.6259 104.859 67.573C104.409 67.5322 104.054 67.4249 103.797 67.2511C103.54 67.0743 103.347 66.8833 103.218 66.6782C103.089 66.47 102.991 66.2984 102.923 66.1633L102.832 66.155L102.496 69.8648L101.418 69.7672ZM103.034 63.7228C102.986 64.2528 103.021 64.7274 103.14 65.1465C103.259 65.5626 103.457 65.8984 103.735 66.1538C104.013 66.4062 104.368 66.552 104.801 66.5912C105.252 66.632 105.639 66.5472 105.962 66.337C106.288 66.1239 106.546 65.8217 106.735 65.4304C106.927 65.0364 107.046 64.5896 107.091 64.09C107.135 63.5966 107.1 63.145 106.983 62.7353C106.87 62.3228 106.672 61.987 106.388 61.728C106.108 61.4662 105.739 61.3146 105.282 61.2732C104.844 61.2335 104.465 61.3113 104.146 61.5066C103.828 61.6989 103.575 61.9862 103.387 62.3683C103.199 62.7474 103.081 63.1989 103.034 63.7228ZM112.425 68.2578C111.749 68.1966 111.179 67.9945 110.716 67.6517C110.256 67.306 109.918 66.8517 109.702 66.2886C109.489 65.7227 109.415 65.0804 109.48 64.3616C109.545 63.6428 109.733 63.0211 110.045 62.4966C110.36 61.9692 110.767 61.5731 111.267 61.3083C111.77 61.0406 112.339 60.9354 112.972 60.9928C113.338 61.0259 113.693 61.1194 114.038 61.2735C114.384 61.4276 114.69 61.655 114.958 61.9555C115.226 62.2531 115.426 62.6336 115.559 63.097C115.692 63.5605 115.729 64.1196 115.67 64.7745L115.629 65.2313L110.219 64.7417L110.304 63.8097L114.616 64.2001C114.652 63.8041 114.605 63.4436 114.475 63.1186C114.348 62.7939 114.147 62.5286 113.874 62.3227C113.604 62.1171 113.274 61.9966 112.885 61.9613C112.455 61.9225 112.074 61.9954 111.741 62.1802C111.411 62.3623 111.147 62.6148 110.949 62.9377C110.751 63.2606 110.634 63.6155 110.599 64.0023L110.543 64.6236C110.495 65.1536 110.546 65.6111 110.695 65.9962C110.848 66.3785 111.08 66.6805 111.392 66.9022C111.704 67.1208 112.077 67.2498 112.513 67.2892C112.796 67.3149 113.056 67.2984 113.291 67.2399C113.53 67.1786 113.741 67.0749 113.923 66.9286C114.105 66.7793 114.253 66.5869 114.366 66.3515L115.382 66.7382C115.24 67.0816 115.028 67.3756 114.744 67.6202C114.462 67.8618 114.123 68.0399 113.729 68.1547C113.335 68.2664 112.9 68.3008 112.425 68.2578ZM123.066 59.3454L123.555 60.0529C123.323 60.2407 123.063 60.3631 122.775 60.42C122.488 60.4768 122.166 60.4984 121.811 60.4847C121.456 60.471 121.062 60.4537 120.628 60.4328C120.139 60.407 119.724 60.4893 119.385 60.6796C119.045 60.87 118.77 61.1644 118.559 61.5629C118.347 61.9614 118.19 62.46 118.087 63.0587L118.178 63.0669C118.456 62.6498 118.814 62.3568 119.253 62.1877C119.692 62.0186 120.152 61.9559 120.633 61.9994C121.181 62.0491 121.663 62.2216 122.079 62.5172C122.494 62.8127 122.807 63.2234 123.017 63.7491C123.228 64.2748 123.3 64.9062 123.233 65.6433C123.166 66.3773 122.978 66.999 122.668 67.5083C122.361 68.0179 121.96 68.3961 121.464 68.643C120.972 68.8871 120.413 68.9808 119.785 68.924C119.158 68.8672 118.622 68.6697 118.176 68.3316C117.731 67.9903 117.404 67.5155 117.195 66.907C116.986 66.2954 116.921 65.5571 116.999 64.6921L117.067 63.9429C117.209 62.3804 117.581 61.2195 118.184 60.4604C118.79 59.7015 119.629 59.3567 120.7 59.4261C121.079 59.4481 121.416 59.4755 121.711 59.5083C122.006 59.5412 122.264 59.5508 122.487 59.5371C122.709 59.5234 122.902 59.4596 123.066 59.3454ZM119.873 67.9554C120.296 67.9938 120.67 67.9201 120.994 67.7345C121.321 67.5491 121.584 67.2705 121.783 66.8985C121.983 66.5236 122.107 66.0726 122.155 65.5457C122.201 65.034 122.157 64.5909 122.022 64.2163C121.89 63.842 121.678 63.5465 121.388 63.3298C121.097 63.1131 120.737 62.9854 120.308 62.9465C119.994 62.9181 119.708 62.9459 119.448 63.0299C119.189 63.1139 118.961 63.2515 118.766 63.4426C118.571 63.6337 118.411 63.8741 118.286 64.1638C118.165 64.4537 118.084 64.7903 118.043 65.1735C117.972 65.9593 118.099 66.605 118.425 67.1104C118.751 67.6159 119.233 67.8975 119.873 67.9554ZM129.632 65.6329L129.541 66.638L125.667 66.2873L125.757 65.2822L129.632 65.6329ZM126.286 62.29L125.651 69.3076L124.573 69.21L125.208 62.1924L126.286 62.29ZM130.727 62.692L130.092 69.7095L129.014 69.6119L129.649 62.5944L130.727 62.692ZM134.899 70.292C134.265 70.2347 133.723 70.0336 133.272 69.6888C132.824 69.3442 132.491 68.8887 132.272 68.3223C132.056 67.7562 131.981 67.1107 132.046 66.3858C132.112 65.6548 132.303 65.0287 132.617 64.5075C132.934 63.9865 133.344 63.5968 133.847 63.3383C134.352 63.08 134.922 62.9796 135.555 63.0369C136.189 63.0942 136.729 63.2952 137.177 63.6397C137.628 63.9846 137.962 64.4416 138.177 65.0107C138.396 65.5802 138.472 66.2304 138.406 66.9614C138.34 67.6863 138.149 68.3077 137.832 68.8256C137.518 69.3438 137.108 69.732 136.603 69.9902C136.1 70.2487 135.532 70.3493 134.899 70.292ZM134.986 69.3234C135.467 69.367 135.875 69.2795 136.208 69.0609C136.541 68.8423 136.8 68.5387 136.986 68.1502C137.171 67.7617 137.285 67.3329 137.328 66.8638C137.37 66.3948 137.335 65.9509 137.223 65.5323C137.11 65.1137 136.91 64.7655 136.622 64.4876C136.333 64.2097 135.949 64.049 135.468 64.0055C134.986 63.9619 134.579 64.0509 134.246 64.2726C133.913 64.4942 133.653 64.8008 133.467 65.1924C133.281 65.584 133.167 66.0143 133.125 66.4834C133.082 66.9524 133.117 67.3947 133.23 67.8103C133.343 68.2258 133.544 68.571 133.832 68.8458C134.12 69.1207 134.505 69.2799 134.986 69.3234ZM142.575 70.9868C141.917 70.9273 141.365 70.7207 140.918 70.367C140.471 70.0133 140.144 69.5523 139.937 68.9839C139.731 68.4156 139.659 67.7811 139.723 67.0806C139.787 66.3679 139.975 65.7508 140.287 65.2293C140.601 64.705 141.008 64.3105 141.508 64.0456C142.012 63.7779 142.58 63.6728 143.214 63.7301C143.707 63.7748 144.143 63.9064 144.523 64.125C144.902 64.3436 145.203 64.6288 145.426 64.9806C145.649 65.3324 145.772 65.7304 145.793 66.1745L144.715 66.0769C144.661 65.7497 144.504 65.4499 144.243 65.1775C143.986 64.9024 143.619 64.7433 143.144 64.7003C142.724 64.6623 142.345 64.7386 142.009 64.9292C141.675 65.117 141.403 65.401 141.19 65.7809C140.981 66.1581 140.852 66.6117 140.804 67.1417C140.755 67.6838 140.798 68.1636 140.932 68.5811C141.069 68.9989 141.285 69.3331 141.578 69.5839C141.875 69.8349 142.236 69.9797 142.663 70.0183C142.943 70.0436 143.202 70.0179 143.439 69.9411C143.676 69.8644 143.882 69.7418 144.057 69.5733C144.232 69.4049 144.365 69.1958 144.455 68.9461L145.533 69.0436C145.435 69.4524 145.25 69.8118 144.98 70.122C144.712 70.4295 144.373 70.6629 143.963 70.8223C143.555 70.9788 143.093 71.0337 142.575 70.9868ZM146.915 65.1707L147.006 64.1655L152.708 64.6816L152.617 65.6868L150.315 65.4783L149.77 71.4907L148.692 71.3931L149.236 65.3807L146.915 65.1707ZM154.868 70.3492L158.74 65.2276L159.983 65.3401L159.347 72.3576L158.269 72.26L158.761 66.8324L154.907 71.9557L153.646 71.8415L154.281 64.824L155.359 64.9216L154.868 70.3492Z" fill="#202020"/>
<path d="M219.513 75.4788C218.016 75.3433 216.716 74.966 215.614 74.3469C214.519 73.7284 213.689 72.9373 213.123 71.9736C212.558 71.01 212.331 69.9507 212.442 68.7956C212.517 67.89 212.777 67.0747 213.222 66.3499C213.674 65.6188 214.25 65.0287 214.951 64.5797C215.652 64.1238 216.412 63.8627 217.233 63.7966L217.244 63.6713C216.202 63.3173 215.401 62.6692 214.84 61.7271C214.28 60.785 214.055 59.7399 214.166 58.5918C214.258 57.4982 214.635 56.5497 215.298 55.7463C215.967 54.9366 216.84 54.3312 217.915 53.9302C218.99 53.5292 220.186 53.3882 221.501 53.5073C222.803 53.6252 223.943 53.981 224.921 54.5749C225.907 55.1625 226.656 55.9146 227.17 56.8315C227.684 57.7413 227.896 58.7396 227.804 59.8263C227.693 60.9744 227.274 61.9612 226.547 62.7867C225.819 63.6123 224.925 64.1069 223.865 64.2706L223.853 64.3959C224.641 64.6076 225.332 65 225.926 65.5732C226.527 66.14 226.985 66.8236 227.299 67.6241C227.62 68.4182 227.743 69.2681 227.668 70.1738C227.556 71.3288 227.136 72.3295 226.407 73.176C225.677 74.0224 224.715 74.6512 223.519 75.0624C222.331 75.4743 220.995 75.6131 219.513 75.4788ZM219.752 72.8368C220.636 72.9168 221.415 72.84 222.089 72.6062C222.763 72.3654 223.302 71.9966 223.705 71.4996C224.109 70.9957 224.346 70.3855 224.418 69.6691C224.479 68.9235 224.343 68.248 224.012 67.6425C223.688 67.0376 223.217 66.5422 222.599 66.1564C221.981 65.7706 221.254 65.5399 220.419 65.4642C219.577 65.388 218.813 65.4839 218.129 65.7518C217.445 66.0198 216.89 66.4222 216.462 66.959C216.034 67.4959 215.79 68.1371 215.73 68.8826C215.658 69.5991 215.772 70.2411 216.071 70.8086C216.379 71.3699 216.846 71.8298 217.473 72.1884C218.101 72.54 218.861 72.7562 219.752 72.8368ZM220.653 62.8849C221.363 62.9492 222.006 62.8635 222.581 62.6278C223.157 62.3922 223.625 62.0344 223.984 61.5546C224.35 61.0753 224.568 60.4949 224.637 59.8133C224.69 59.1443 224.583 58.545 224.315 58.0154C224.054 57.4864 223.661 57.0613 223.135 56.74C222.611 56.4118 221.986 56.2149 221.262 56.1493C220.524 56.0825 219.864 56.1632 219.282 56.3912C218.708 56.613 218.244 56.9606 217.893 57.4341C217.541 57.9076 217.338 58.4789 217.285 59.1478C217.216 59.8295 217.315 60.4386 217.583 60.9751C217.85 61.5117 218.246 61.9476 218.77 62.2828C219.301 62.6187 219.929 62.8194 220.653 62.8849ZM238.333 77.1824C237.381 77.0821 236.456 76.823 235.561 76.405C234.672 75.9877 233.887 75.3551 233.206 74.5073C232.524 73.6596 232.017 72.5573 231.684 71.2005C231.357 69.8444 231.283 68.1813 231.461 66.2111C231.63 64.3453 231.965 62.7051 232.465 61.2904C232.972 59.8764 233.622 58.7034 234.415 57.7715C235.209 56.8327 236.127 56.1472 237.17 55.7152C238.213 55.2832 239.354 55.1233 240.593 55.2354C241.867 55.3508 242.976 55.7038 243.919 56.2945C244.862 56.8853 245.6 57.6504 246.133 58.59C246.672 59.5303 246.975 60.5718 247.04 61.7148L243.855 61.4265C243.72 60.5158 243.357 59.7496 242.768 59.1277C242.178 58.5058 241.368 58.1482 240.338 58.055C238.772 57.9132 237.488 58.4849 236.487 59.77C235.494 61.0557 234.883 62.9131 234.656 65.3422L234.813 65.3563C235.237 64.7841 235.736 64.3099 236.311 63.9337C236.893 63.5512 237.528 63.2754 238.217 63.1061C238.914 62.9305 239.635 62.8765 240.38 62.9439C241.619 63.0561 242.713 63.4604 243.66 64.1568C244.615 64.8469 245.345 65.7481 245.847 66.8605C246.35 67.9729 246.54 69.2113 246.417 70.5759C246.293 71.9404 245.871 73.1481 245.152 74.1989C244.439 75.2504 243.496 76.0494 242.324 76.5961C241.152 77.1357 239.822 77.3312 238.333 77.1824ZM238.568 74.4663C239.39 74.5407 240.143 74.4053 240.827 74.0601C241.511 73.7149 242.071 73.2182 242.509 72.57C242.947 71.9217 243.204 71.1764 243.28 70.3341C243.354 69.5126 243.238 68.7475 242.93 68.0388C242.629 67.3307 242.176 66.7493 241.572 66.2945C240.974 65.8403 240.268 65.5764 239.453 65.5026C238.834 65.4465 238.249 65.5129 237.698 65.7017C237.155 65.8912 236.666 66.1768 236.231 66.5586C235.796 66.9404 235.44 67.3924 235.161 67.9146C234.889 68.4305 234.727 68.9878 234.672 69.5865C234.6 70.3871 234.717 71.1453 235.025 71.8609C235.339 72.5772 235.801 73.1735 236.41 73.6498C237.027 74.1198 237.747 74.392 238.568 74.4663ZM261.114 74.9068L261.216 73.779C261.289 72.9714 261.523 72.2486 261.918 71.6105C262.32 70.9661 262.863 70.4713 263.547 70.1261C264.239 69.7746 265.048 69.6407 265.974 69.7245C266.92 69.8102 267.696 70.084 268.3 70.5457C268.904 71.0075 269.339 71.5908 269.605 72.2957C269.878 73.0013 269.978 73.7578 269.905 74.5654L269.803 75.6932C269.73 76.5008 269.495 77.2271 269.1 77.8722C268.705 78.5102 268.166 79.0054 267.481 79.3575C266.804 79.7033 265.999 79.834 265.066 79.7496C264.126 79.6645 263.351 79.3908 262.74 78.9284C262.13 78.459 261.688 77.875 261.414 77.1765C261.141 76.4709 261.041 75.7144 261.114 74.9068ZM263.65 73.9992L263.547 75.127C263.493 75.7257 263.587 76.2817 263.828 76.7949C264.069 77.308 264.545 77.5967 265.255 77.661C265.958 77.7247 266.471 77.5254 266.794 77.0633C267.116 76.6012 267.305 76.0708 267.359 75.472L267.461 74.3442C267.515 73.7455 267.429 73.1902 267.201 72.6783C266.981 72.167 266.509 71.8786 265.785 71.8131C265.088 71.7501 264.572 71.949 264.236 72.4098C263.899 72.8707 263.704 73.4005 263.65 73.9992ZM251.466 61.6943L251.568 60.5665C251.641 59.7589 251.875 59.0326 252.271 58.3876C252.673 57.7431 253.216 57.2483 253.9 56.9032C254.591 56.5586 255.4 56.4282 256.325 56.5121C257.272 56.5978 258.048 56.8715 258.652 57.3332C259.256 57.795 259.691 58.3783 259.957 59.0833C260.223 59.7882 260.319 60.5444 260.246 61.352L260.144 62.4798C260.071 63.2874 259.837 64.0137 259.441 64.6587C259.054 65.2975 258.518 65.7929 257.833 66.145C257.156 66.4908 256.351 66.6215 255.418 66.5371C254.471 66.4514 253.692 66.1773 253.081 65.7149C252.478 65.2462 252.04 64.6626 251.766 63.964C251.493 63.2584 251.393 62.5019 251.466 61.6943ZM254.012 60.7877L253.91 61.9155C253.855 62.5142 253.946 63.0698 254.18 63.5824C254.421 64.0955 254.897 64.3843 255.607 64.4485C256.303 64.5115 256.813 64.312 257.135 63.8499C257.465 63.3884 257.657 62.8583 257.711 62.2596L257.813 61.1317C257.867 60.533 257.781 59.9777 257.553 59.4658C257.326 58.9539 256.853 58.6655 256.136 58.6006C255.44 58.5376 254.924 58.7365 254.587 59.1974C254.258 59.6589 254.066 60.189 254.012 60.7877ZM250.987 78.033L267.627 57.9772L270.122 58.2031L253.483 78.2589L250.987 78.033Z" fill="#20252E"/>
<line x1="209.735" y1="80.0791" x2="274.062" y2="85.9017" stroke="#20252E" stroke-width="0.922718" stroke-dasharray="1.85 1.85"/>
<g clip-path="url(#clip0_2448_27330)">
<path d="M285.96 67.0587L286.459 61.545L280.945 61.0459" stroke="#1A8FF2" stroke-width="1.84544" stroke-linecap="round" stroke-linejoin="round"/>
<path d="M286.458 61.545L279.443 67.3955" stroke="#1A8FF2" stroke-width="1.84544" stroke-linecap="round" stroke-linejoin="round"/>
</g>
</g>
<g filter="url(#filter1_d_2448_27330)">
<path d="M39.4059 185.409C38.3196 169.859 37.7765 162.083 42.2698 156.915C46.7632 151.747 54.5382 151.204 70.0884 150.118L274.194 135.86C289.744 134.773 297.519 134.23 302.688 138.723C307.856 143.217 308.399 150.992 309.485 166.542L309.679 169.31C310.765 184.86 311.308 192.635 306.815 197.803C302.321 202.971 294.546 203.514 278.996 204.601L74.8903 218.859C59.3402 219.945 51.5652 220.488 46.3969 215.995C41.2286 211.501 40.6855 203.726 39.5992 188.176L39.4059 185.409Z" fill="white" shape-rendering="crispEdges"/>
<rect x="60.6719" y="172.049" width="11.0726" height="11.0726" rx="2.76815" transform="rotate(-3.99597 60.6719 172.049)" fill="#66AA61"/>
<path d="M88.5099 175.653C88.5789 176.641 88.4601 177.508 88.1535 178.253C87.8468 178.998 87.3959 179.587 86.8009 180.021C86.2058 180.455 85.5086 180.7 84.7093 180.756C83.9099 180.812 83.1855 180.666 82.5358 180.319C81.8862 179.972 81.3577 179.451 80.9505 178.756C80.5432 178.061 80.3051 177.219 80.236 176.231C80.167 175.242 80.2858 174.375 80.5924 173.631C80.8991 172.886 81.35 172.296 81.9451 171.862C82.5401 171.428 83.2373 171.183 84.0367 171.127C84.836 171.072 85.5604 171.217 86.2101 171.564C86.8597 171.911 87.3882 172.432 87.7954 173.127C88.2027 173.822 88.4408 174.664 88.5099 175.653ZM87.4116 175.729C87.3549 174.918 87.1713 174.242 86.8607 173.703C86.5533 173.164 86.1592 172.766 85.6785 172.512C85.2008 172.257 84.6783 172.149 84.1108 172.189C83.5434 172.229 83.0393 172.408 82.5987 172.727C82.1611 173.046 81.826 173.494 81.5935 174.071C81.364 174.648 81.2777 175.342 81.3343 176.154C81.391 176.965 81.5731 177.641 81.8806 178.18C82.1911 178.72 82.5852 179.117 83.0629 179.372C83.5436 179.626 84.0676 179.734 84.6351 179.694C85.2025 179.654 85.7051 179.475 86.1427 179.157C86.5833 178.838 86.9183 178.39 87.1478 177.813C87.3803 177.235 87.4683 176.541 87.4116 175.729ZM89.7757 174.221L89.7053 173.215L95.4164 172.816L95.4868 173.822L93.1804 173.984L93.6011 180.006L92.5211 180.081L92.1004 174.059L89.7757 174.221ZM97.667 182.371L96.9918 172.706L98.0352 172.633L98.1132 173.749L98.2413 173.74C98.3121 173.613 98.4111 173.45 98.5382 173.251C98.6682 173.048 98.8606 172.863 99.1156 172.695C99.3734 172.524 99.7312 172.422 100.189 172.39C100.781 172.349 101.313 172.461 101.785 172.725C102.257 172.989 102.639 173.384 102.93 173.91C103.221 174.435 103.392 175.067 103.444 175.805C103.496 176.549 103.414 177.203 103.199 177.767C102.984 178.328 102.663 178.774 102.235 179.104C101.807 179.431 101.3 179.615 100.715 179.656C100.263 179.688 99.8965 179.638 99.6145 179.508C99.3323 179.374 99.1113 179.216 98.9514 179.034C98.7914 178.849 98.6672 178.695 98.5789 178.573L98.4874 178.579L98.747 182.295L97.667 182.371ZM98.299 176.146C98.3361 176.677 98.4466 177.14 98.6305 177.535C98.8143 177.926 99.0636 178.226 99.3786 178.434C99.6933 178.639 100.067 178.726 100.501 178.696C100.952 178.665 101.321 178.519 101.606 178.26C101.894 177.998 102.1 177.659 102.225 177.242C102.352 176.822 102.398 176.362 102.363 175.862C102.328 175.368 102.221 174.928 102.041 174.542C101.863 174.153 101.614 173.853 101.293 173.642C100.974 173.428 100.586 173.337 100.128 173.369C99.6891 173.4 99.3277 173.537 99.0443 173.781C98.7607 174.021 98.5564 174.345 98.4316 174.753C98.3065 175.157 98.2624 175.621 98.299 176.146ZM107.416 179.206C106.97 179.238 106.56 179.182 106.185 179.039C105.81 178.894 105.505 178.668 105.269 178.363C105.033 178.055 104.899 177.672 104.867 177.214C104.839 176.811 104.895 176.479 105.036 176.218C105.177 175.954 105.375 175.741 105.631 175.579C105.886 175.417 106.172 175.289 106.487 175.197C106.805 175.101 107.126 175.02 107.45 174.955C107.873 174.87 108.216 174.805 108.48 174.759C108.746 174.71 108.938 174.646 109.055 174.567C109.175 174.488 109.229 174.362 109.217 174.188L109.215 174.151C109.183 173.7 109.035 173.357 108.77 173.124C108.509 172.891 108.129 172.792 107.632 172.827C107.117 172.863 106.72 173.004 106.443 173.25C106.166 173.496 105.977 173.752 105.876 174.016L104.825 173.722C104.978 173.282 105.199 172.932 105.488 172.673C105.779 172.411 106.103 172.219 106.459 172.099C106.819 171.976 107.175 171.902 107.529 171.878C107.755 171.862 108.016 171.871 108.313 171.906C108.612 171.937 108.905 172.025 109.191 172.171C109.48 172.316 109.728 172.549 109.934 172.868C110.141 173.188 110.263 173.627 110.302 174.185L110.626 178.817L109.546 178.892L109.479 177.94L109.424 177.944C109.362 178.102 109.251 178.273 109.092 178.459C108.934 178.645 108.717 178.809 108.442 178.951C108.166 179.093 107.824 179.178 107.416 179.206ZM107.513 178.225C107.94 178.195 108.294 178.086 108.575 177.898C108.859 177.709 109.067 177.477 109.198 177.201C109.332 176.925 109.388 176.641 109.368 176.348L109.299 175.359C109.257 175.417 109.16 175.475 109.007 175.531C108.858 175.585 108.684 175.635 108.485 175.683C108.288 175.727 108.097 175.768 107.909 175.806C107.725 175.84 107.575 175.869 107.46 175.892C107.182 175.949 106.924 176.026 106.685 176.126C106.45 176.222 106.263 176.356 106.125 176.528C105.99 176.697 105.931 176.919 105.951 177.193C105.977 177.569 106.135 177.843 106.426 178.015C106.72 178.185 107.082 178.255 107.513 178.225ZM117.139 168.649L117.734 169.27C117.535 169.492 117.298 169.655 117.023 169.757C116.748 169.859 116.434 169.931 116.082 169.974C115.729 170.017 115.337 170.063 114.905 170.112C114.418 170.164 114.022 170.311 113.717 170.553C113.412 170.795 113.187 171.13 113.042 171.557C112.897 171.984 112.821 172.501 112.815 173.109L112.906 173.102C113.114 172.646 113.421 172.3 113.827 172.063C114.234 171.826 114.678 171.691 115.16 171.657C115.709 171.619 116.212 171.712 116.669 171.938C117.127 172.164 117.501 172.519 117.792 173.005C118.084 173.49 118.255 174.102 118.307 174.84C118.358 175.576 118.271 176.219 118.046 176.772C117.824 177.324 117.489 177.761 117.039 178.083C116.592 178.403 116.055 178.585 115.426 178.628C114.798 178.672 114.237 178.563 113.743 178.3C113.249 178.034 112.851 177.617 112.548 177.05C112.244 176.479 112.062 175.761 112.001 174.895L111.949 174.144C111.84 172.579 112.022 171.374 112.497 170.528C112.974 169.682 113.747 169.208 114.816 169.106C115.194 169.067 115.53 169.041 115.827 169.026C116.123 169.012 116.38 168.98 116.597 168.931C116.815 168.882 116.995 168.788 117.139 168.649ZM115.358 177.658C115.782 177.629 116.14 177.496 116.43 177.262C116.723 177.026 116.938 176.709 117.076 176.31C117.214 175.908 117.264 175.444 117.227 174.916C117.191 174.403 117.077 173.973 116.884 173.625C116.694 173.276 116.438 173.018 116.117 172.85C115.796 172.683 115.42 172.614 114.99 172.644C114.675 172.666 114.397 172.739 114.154 172.863C113.912 172.988 113.709 173.16 113.547 173.379C113.384 173.599 113.264 173.862 113.188 174.168C113.114 174.473 113.088 174.819 113.108 175.203C113.163 175.991 113.392 176.608 113.794 177.055C114.196 177.502 114.718 177.703 115.358 177.658ZM123.064 178.095C122.429 178.139 121.862 178.027 121.362 177.759C120.865 177.49 120.463 177.093 120.157 176.569C119.853 176.044 119.676 175.419 119.626 174.693C119.574 173.961 119.663 173.312 119.89 172.748C120.12 172.183 120.463 171.733 120.918 171.398C121.375 171.062 121.922 170.872 122.556 170.828C123.191 170.784 123.757 170.896 124.254 171.165C124.754 171.433 125.156 171.831 125.459 172.359C125.766 172.886 125.945 173.516 125.996 174.248C126.046 174.974 125.957 175.618 125.726 176.18C125.499 176.741 125.156 177.19 124.698 177.525C124.243 177.861 123.698 178.051 123.064 178.095ZM122.996 177.125C123.478 177.091 123.866 176.94 124.16 176.671C124.454 176.402 124.662 176.061 124.783 175.648C124.904 175.235 124.949 174.793 124.916 174.323C124.883 173.854 124.778 173.421 124.6 173.026C124.422 172.63 124.169 172.319 123.84 172.09C123.511 171.862 123.106 171.764 122.624 171.798C122.142 171.832 121.754 171.984 121.46 172.256C121.167 172.528 120.959 172.872 120.838 173.289C120.717 173.705 120.673 174.148 120.706 174.618C120.738 175.087 120.844 175.518 121.021 175.911C121.199 176.303 121.452 176.612 121.78 176.837C122.109 177.063 122.514 177.158 122.996 177.125ZM126.548 171.653L126.478 170.646L132.189 170.247L132.259 171.254L129.953 171.415L130.373 177.437L129.293 177.513L128.873 171.49L126.548 171.653ZM134.255 177.166L133.764 170.137L134.844 170.061L135.058 173.118L135.771 173.068L138.084 169.835L139.475 169.738L136.874 173.323L140.003 176.764L138.612 176.862L136.098 174.057L135.128 174.125L135.335 177.091L134.255 177.166ZM143.257 176.703C142.811 176.734 142.401 176.678 142.026 176.536C141.651 176.39 141.346 176.165 141.11 175.859C140.874 175.551 140.74 175.168 140.708 174.71C140.68 174.308 140.736 173.976 140.877 173.714C141.018 173.45 141.216 173.237 141.472 173.075C141.727 172.913 142.013 172.786 142.328 172.693C142.646 172.597 142.967 172.517 143.291 172.451C143.714 172.366 144.057 172.301 144.321 172.255C144.587 172.206 144.779 172.142 144.896 172.063C145.016 171.984 145.07 171.858 145.058 171.684L145.056 171.647C145.024 171.196 144.876 170.854 144.611 170.621C144.35 170.388 143.97 170.288 143.473 170.323C142.958 170.359 142.561 170.5 142.284 170.747C142.007 170.993 141.818 171.248 141.717 171.513L140.666 171.218C140.819 170.778 141.04 170.429 141.329 170.169C141.62 169.907 141.944 169.716 142.3 169.596C142.66 169.473 143.016 169.399 143.37 169.374C143.596 169.358 143.857 169.367 144.154 169.402C144.453 169.433 144.746 169.521 145.032 169.667C145.321 169.812 145.569 170.045 145.775 170.365C145.982 170.684 146.104 171.123 146.143 171.682L146.467 176.313L145.387 176.388L145.32 175.436L145.265 175.44C145.203 175.598 145.092 175.77 144.933 175.956C144.775 176.141 144.558 176.305 144.283 176.447C144.007 176.589 143.665 176.674 143.257 176.703ZM143.354 175.721C143.781 175.691 144.135 175.582 144.416 175.394C144.7 175.205 144.908 174.973 145.039 174.697C145.173 174.421 145.229 174.137 145.209 173.844L145.14 172.855C145.098 172.914 145.001 172.971 144.848 173.028C144.699 173.081 144.525 173.131 144.326 173.179C144.129 173.223 143.938 173.264 143.75 173.302C143.566 173.336 143.416 173.365 143.301 173.389C143.023 173.445 142.765 173.523 142.526 173.622C142.291 173.718 142.104 173.852 141.966 174.025C141.83 174.193 141.772 174.415 141.792 174.69C141.818 175.065 141.976 175.339 142.267 175.512C142.561 175.681 142.923 175.751 143.354 175.721ZM81.898 196.862L81.407 189.833L84.2809 189.633C85.0375 189.58 85.6504 189.709 86.1197 190.019C86.589 190.33 86.8433 190.766 86.8825 191.327C86.9123 191.754 86.8088 192.094 86.572 192.347C86.335 192.596 86.0211 192.776 85.6302 192.886C85.8921 192.905 86.1502 192.978 86.4045 193.108C86.6618 193.237 86.8803 193.424 87.0599 193.669C87.2393 193.911 87.3418 194.217 87.3676 194.586C87.3928 194.946 87.3237 195.274 87.1605 195.57C86.9973 195.867 86.7506 196.11 86.4204 196.298C86.0902 196.487 85.6872 196.598 85.2112 196.631L81.898 196.862ZM82.8541 195.802L85.1422 195.642C85.5144 195.616 85.7995 195.508 85.9977 195.316C86.1958 195.124 86.2843 194.876 86.2629 194.571C86.2376 194.208 86.1124 193.93 85.8874 193.737C85.6622 193.541 85.3635 193.457 84.9913 193.483L82.7032 193.642L82.8541 195.802ZM82.638 192.709L84.4868 192.58C84.7766 192.559 85.0225 192.502 85.2244 192.409C85.4261 192.312 85.5766 192.185 85.676 192.028C85.7782 191.867 85.8221 191.683 85.8076 191.476C85.7869 191.18 85.6472 190.957 85.3883 190.806C85.1293 190.652 84.7831 190.591 84.3499 190.621L82.5011 190.75L82.638 192.709ZM92 196.304C91.3654 196.348 90.7981 196.236 90.298 195.968C89.801 195.699 89.3993 195.302 89.0929 194.778C88.7895 194.253 88.6125 193.628 88.5617 192.902C88.5106 192.17 88.5987 191.521 88.8259 190.957C89.0563 190.392 89.3988 189.942 89.8537 189.607C90.3115 189.271 90.8578 189.081 91.4923 189.037C92.1269 188.993 92.6927 189.105 93.1897 189.374C93.6898 189.642 94.0916 190.04 94.3952 190.568C94.7018 191.095 94.8807 191.725 94.9319 192.457C94.9826 193.183 94.8927 193.827 94.6621 194.389C94.4346 194.95 94.092 195.399 93.6341 195.734C93.1793 196.07 92.6346 196.26 92 196.304ZM91.9322 195.334C92.4142 195.3 92.8022 195.149 93.0961 194.88C93.3901 194.611 93.5977 194.27 93.7191 193.857C93.8404 193.444 93.8847 193.002 93.8519 192.532C93.819 192.063 93.7137 191.63 93.5359 191.235C93.358 190.839 93.1048 190.528 92.7761 190.299C92.4475 190.071 92.0421 189.973 91.5601 190.007C91.0781 190.041 90.6902 190.193 90.3965 190.465C90.1028 190.737 89.8954 191.081 89.7742 191.498C89.6531 191.914 89.6089 192.357 89.6417 192.827C89.6746 193.296 89.7798 193.727 89.9574 194.12C90.135 194.512 90.3881 194.821 90.7165 195.046C91.0449 195.272 91.4502 195.367 91.9322 195.334ZM96.2588 194.057L97.412 193.976C97.4585 194.292 97.6188 194.523 97.8926 194.669C98.1696 194.815 98.5201 194.874 98.9441 194.844C99.3773 194.814 99.7418 194.699 100.038 194.501C100.333 194.299 100.467 193.999 100.439 193.599C100.423 193.364 100.35 193.164 100.222 192.998C100.094 192.829 99.9212 192.703 99.7039 192.62C99.4866 192.537 99.2345 192.506 98.9478 192.526L97.7396 192.61L97.6719 191.64L98.88 191.556C99.3101 191.526 99.6206 191.406 99.8114 191.196C100.005 190.987 100.092 190.735 100.071 190.443C100.049 190.128 99.9205 189.884 99.6846 189.711C99.4485 189.534 99.126 189.46 98.7172 189.489C98.3053 189.517 97.9686 189.634 97.707 189.84C97.4452 190.042 97.3169 190.288 97.3218 190.579L96.1869 190.659C96.1727 190.28 96.2653 189.937 96.4647 189.632C96.6639 189.324 96.9469 189.074 97.3137 188.883C97.6803 188.689 98.1076 188.575 98.5958 188.541C99.09 188.506 99.5247 188.563 99.8999 188.712C100.278 188.857 100.576 189.071 100.795 189.353C101.017 189.631 101.141 189.957 101.167 190.329C101.195 190.726 101.106 191.054 100.9 191.314C100.695 191.573 100.428 191.767 100.099 191.894L100.104 191.967C100.371 191.967 100.607 192.036 100.813 192.175C101.022 192.311 101.19 192.497 101.317 192.733C101.443 192.966 101.517 193.229 101.537 193.522C101.567 193.949 101.479 194.33 101.272 194.663C101.065 194.993 100.768 195.259 100.381 195.461C99.9929 195.66 99.5427 195.777 99.0302 195.813C98.5329 195.848 98.0819 195.798 97.677 195.664C97.2719 195.526 96.9434 195.321 96.6912 195.047C96.442 194.77 96.2978 194.44 96.2588 194.057ZM103.375 198.011L102.7 188.346L103.744 188.273L103.822 189.39L103.95 189.381C104.02 189.253 104.119 189.09 104.247 188.891C104.377 188.689 104.569 188.503 104.824 188.335C105.082 188.164 105.44 188.063 105.897 188.031C106.489 187.989 107.021 188.101 107.493 188.365C107.965 188.63 108.347 189.024 108.638 189.55C108.929 190.075 109.101 190.707 109.152 191.445C109.204 192.19 109.123 192.844 108.908 193.408C108.692 193.968 108.371 194.414 107.943 194.744C107.516 195.071 107.009 195.255 106.423 195.296C105.972 195.328 105.605 195.278 105.323 195.148C105.041 195.014 104.82 194.857 104.66 194.675C104.5 194.49 104.376 194.336 104.287 194.213L104.196 194.22L104.455 197.935L103.375 198.011ZM104.007 191.786C104.044 192.317 104.155 192.78 104.339 193.175C104.523 193.567 104.772 193.867 105.087 194.074C105.402 194.279 105.776 194.367 106.209 194.336C106.66 194.305 107.029 194.16 107.314 193.9C107.603 193.638 107.809 193.299 107.933 192.882C108.06 192.463 108.106 192.003 108.071 191.502C108.037 191.008 107.929 190.568 107.749 190.182C107.571 189.793 107.322 189.493 107.001 189.282C106.682 189.069 106.294 188.978 105.837 189.01C105.397 189.04 105.036 189.178 104.753 189.421C104.469 189.662 104.265 189.986 104.14 190.393C104.015 190.797 103.971 191.262 104.007 191.786ZM113.124 194.847C112.679 194.878 112.268 194.822 111.894 194.68C111.519 194.534 111.213 194.309 110.977 194.003C110.741 193.695 110.607 193.312 110.575 192.854C110.547 192.451 110.604 192.119 110.745 191.858C110.886 191.594 111.084 191.381 111.339 191.219C111.595 191.057 111.88 190.93 112.195 190.837C112.514 190.741 112.835 190.661 113.158 190.595C113.581 190.51 113.925 190.445 114.188 190.399C114.455 190.35 114.646 190.286 114.763 190.207C114.884 190.128 114.938 190.002 114.925 189.828L114.923 189.791C114.891 189.34 114.743 188.998 114.479 188.765C114.217 188.532 113.838 188.432 113.341 188.467C112.825 188.503 112.429 188.644 112.151 188.89C111.874 189.137 111.685 189.392 111.584 189.657L110.534 189.362C110.687 188.922 110.908 188.573 111.196 188.313C111.487 188.051 111.811 187.86 112.168 187.74C112.527 187.616 112.884 187.543 113.237 187.518C113.463 187.502 113.724 187.511 114.021 187.546C114.321 187.577 114.613 187.665 114.9 187.811C115.189 187.956 115.436 188.189 115.643 188.509C115.849 188.828 115.972 189.267 116.011 189.826L116.334 194.457L115.254 194.532L115.188 193.58L115.133 193.584C115.07 193.742 114.96 193.914 114.801 194.099C114.642 194.285 114.425 194.449 114.15 194.591C113.875 194.733 113.533 194.818 113.124 194.847ZM113.221 193.865C113.648 193.835 114.002 193.726 114.283 193.538C114.568 193.349 114.775 193.117 114.906 192.841C115.04 192.565 115.097 192.281 115.076 191.988L115.007 190.999C114.965 191.058 114.868 191.115 114.716 191.172C114.566 191.225 114.392 191.275 114.193 191.323C113.997 191.367 113.805 191.408 113.618 191.446C113.433 191.48 113.283 191.509 113.168 191.533C112.89 191.589 112.632 191.667 112.394 191.766C112.158 191.862 111.971 191.996 111.833 192.168C111.698 192.337 111.64 192.559 111.659 192.834C111.685 193.209 111.844 193.483 112.135 193.656C112.429 193.825 112.791 193.895 113.221 193.865ZM117.866 194.35L120.472 190.581L117.412 187.318L118.693 187.229L121.246 190.067L121.831 190.026L121.622 187.024L122.702 186.949L122.911 189.951L123.479 189.911L125.612 186.745L126.894 186.656L124.335 190.311L127.421 193.682L126.122 193.773L123.531 190.919L122.982 190.957L123.193 193.978L122.113 194.053L121.902 191.033L121.353 191.071L119.166 194.259L117.866 194.35ZM131.632 193.535C130.955 193.583 130.36 193.474 129.848 193.209C129.339 192.941 128.933 192.547 128.63 192.025C128.329 191.5 128.154 190.878 128.104 190.158C128.054 189.438 128.14 188.794 128.364 188.227C128.591 187.656 128.93 187.2 129.382 186.859C129.836 186.515 130.38 186.32 131.015 186.276C131.381 186.25 131.747 186.286 132.112 186.383C132.478 186.48 132.816 186.656 133.129 186.91C133.44 187.161 133.699 187.505 133.904 187.941C134.109 188.377 134.235 188.924 134.281 189.579L134.313 190.037L128.894 190.416L128.829 189.482L133.149 189.18C133.121 188.784 133.017 188.435 132.837 188.135C132.66 187.835 132.42 187.605 132.117 187.445C131.818 187.285 131.473 187.219 131.083 187.246C130.652 187.276 130.288 187.409 129.988 187.644C129.692 187.877 129.472 188.168 129.328 188.518C129.183 188.869 129.125 189.238 129.152 189.625L129.195 190.247C129.232 190.778 129.355 191.222 129.564 191.578C129.776 191.931 130.053 192.192 130.396 192.362C130.739 192.528 131.128 192.596 131.565 192.565C131.848 192.545 132.102 192.488 132.325 192.392C132.551 192.294 132.742 192.158 132.899 191.984C133.055 191.808 133.171 191.595 133.245 191.344L134.309 191.564C134.224 191.926 134.061 192.25 133.82 192.536C133.58 192.82 133.274 193.05 132.903 193.226C132.532 193.399 132.108 193.502 131.632 193.535ZM140.6 188.733L140.67 189.74L136.789 190.011L136.719 189.004L140.6 188.733ZM136.764 185.966L137.255 192.995L136.175 193.071L135.684 186.042L136.764 185.966ZM141.213 185.656L141.704 192.685L140.624 192.76L140.133 185.731L141.213 185.656ZM144.645 190.879L147.651 185.206L148.896 185.119L149.387 192.148L148.307 192.223L147.927 186.787L144.939 192.459L143.676 192.547L143.185 185.518L144.265 185.442L144.645 190.879ZM152.334 190.342L155.34 184.669L156.585 184.582L157.076 191.611L155.996 191.686L155.616 186.25L152.628 191.921L151.365 192.01L150.874 184.981L151.954 184.905L152.334 190.342ZM154.463 182.375L155.47 182.305C155.504 182.799 155.362 183.216 155.042 183.554C154.722 183.892 154.269 184.081 153.684 184.122C153.107 184.162 152.637 184.037 152.273 183.747C151.913 183.456 151.715 183.064 151.681 182.57L152.687 182.499C152.704 182.737 152.784 182.942 152.928 183.113C153.075 183.283 153.308 183.357 153.629 183.335C153.949 183.313 154.171 183.207 154.296 183.017C154.424 182.827 154.48 182.613 154.463 182.375Z" fill="#202020"/>
<path d="M219.482 162.815C220.438 162.756 221.391 162.864 222.343 163.141C223.294 163.418 224.17 163.917 224.97 164.639C225.777 165.361 226.45 166.365 226.988 167.652C227.533 168.931 227.877 170.547 228.021 172.499C228.152 174.374 228.08 176.058 227.806 177.548C227.531 179.032 227.077 180.301 226.442 181.354C225.815 182.407 225.021 183.23 224.061 183.822C223.1 184.415 221.996 184.755 220.747 184.842C219.471 184.931 218.321 184.759 217.295 184.326C216.27 183.893 215.416 183.256 214.734 182.414C214.051 181.564 213.592 180.566 213.358 179.42L216.548 179.197C216.822 180.103 217.299 180.819 217.981 181.346C218.669 181.865 219.525 182.089 220.55 182.018C222.119 181.908 223.295 181.139 224.078 179.711C224.861 178.276 225.17 176.327 225.005 173.865L224.838 173.877C224.517 174.502 224.1 175.05 223.586 175.52C223.079 175.99 222.499 176.367 221.846 176.651C221.194 176.935 220.487 177.103 219.727 177.156C218.493 177.242 217.349 177.017 216.295 176.481C215.242 175.945 214.378 175.168 213.704 174.15C213.031 173.132 212.646 171.943 212.551 170.584C212.457 169.231 212.678 167.982 213.215 166.837C213.758 165.692 214.562 164.76 215.626 164.041C216.696 163.315 217.982 162.906 219.482 162.815ZM219.682 165.534C218.867 165.591 218.145 165.845 217.518 166.295C216.897 166.738 216.422 167.314 216.093 168.024C215.764 168.726 215.628 169.493 215.686 170.323C215.744 171.152 215.978 171.893 216.388 172.544C216.805 173.187 217.344 173.686 218.006 174.039C218.675 174.385 219.421 174.529 220.244 174.471C220.857 174.428 221.421 174.27 221.934 173.996C222.448 173.722 222.889 173.362 223.257 172.915C223.625 172.462 223.901 171.959 224.087 171.407C224.273 170.854 224.345 170.282 224.303 169.689C224.248 168.901 224.009 168.182 223.585 167.532C223.168 166.881 222.621 166.373 221.944 166.007C221.266 165.634 220.512 165.476 219.682 165.534ZM232.602 183.72L232.438 181.377L239.162 173.36C239.879 172.49 240.467 171.731 240.926 171.082C241.392 170.426 241.731 169.81 241.943 169.235C242.155 168.659 242.239 168.058 242.195 167.43C242.146 166.719 241.936 166.117 241.565 165.624C241.193 165.125 240.709 164.756 240.11 164.517C239.512 164.272 238.85 164.174 238.124 164.225C237.357 164.278 236.699 164.482 236.149 164.836C235.599 165.19 235.191 165.663 234.924 166.256C234.657 166.85 234.55 167.53 234.604 168.297L231.518 168.512C231.427 167.208 231.647 166.047 232.179 165.029C232.71 164.011 233.48 163.197 234.489 162.587C235.497 161.97 236.667 161.615 237.999 161.522C239.345 161.428 240.549 161.613 241.611 162.079C242.68 162.537 243.537 163.206 244.18 164.086C244.822 164.959 245.184 165.971 245.264 167.121C245.32 167.916 245.224 168.704 244.977 169.485C244.737 170.266 244.284 171.149 243.617 172.134C242.95 173.113 242.01 174.31 240.799 175.726L236.853 180.48L236.864 180.636L246.508 179.963L246.702 182.735L232.602 183.72ZM261.567 177.66L261.488 176.53C261.432 175.721 261.547 174.971 261.835 174.278C262.13 173.577 262.587 173.002 263.207 172.553C263.834 172.095 264.611 171.834 265.539 171.77C266.487 171.703 267.296 171.85 267.966 172.21C268.636 172.569 269.158 173.076 269.533 173.729C269.915 174.383 270.134 175.113 270.191 175.922L270.27 177.052C270.326 177.861 270.211 178.615 269.923 179.315C269.635 180.008 269.181 180.583 268.562 181.039C267.948 181.489 267.175 181.746 266.24 181.811C265.299 181.877 264.49 181.73 263.813 181.371C263.136 181.005 262.606 180.499 262.225 179.853C261.843 179.2 261.624 178.469 261.567 177.66ZM263.925 176.36L264.004 177.49C264.046 178.089 264.227 178.623 264.547 179.092C264.867 179.56 265.383 179.769 266.094 179.719C266.798 179.67 267.273 179.392 267.518 178.884C267.762 178.376 267.864 177.823 267.822 177.223L267.743 176.093C267.701 175.494 267.527 174.959 267.221 174.49C266.922 174.02 266.41 173.811 265.685 173.862C264.987 173.91 264.509 174.189 264.251 174.698C263.992 175.206 263.883 175.76 263.925 176.36ZM249.937 166.154L249.858 165.024C249.802 164.215 249.917 163.461 250.204 162.761C250.499 162.061 250.956 161.486 251.577 161.036C252.204 160.586 252.981 160.328 253.909 160.263C254.857 160.197 255.666 160.344 256.336 160.703C257.006 161.063 257.528 161.57 257.903 162.223C258.278 162.877 258.494 163.608 258.55 164.417L258.629 165.546C258.686 166.355 258.57 167.11 258.283 167.809C258.002 168.502 257.551 169.076 256.932 169.533C256.318 169.982 255.544 170.239 254.61 170.305C253.662 170.371 252.849 170.225 252.172 169.865C251.502 169.499 250.976 168.992 250.595 168.346C250.213 167.693 249.993 166.962 249.937 166.154ZM252.306 164.853L252.385 165.983C252.426 166.582 252.604 167.116 252.917 167.585C253.237 168.053 253.753 168.262 254.464 168.213C255.161 168.164 255.632 167.886 255.877 167.378C256.129 166.87 256.234 166.316 256.192 165.717L256.113 164.587C256.071 163.987 255.897 163.453 255.591 162.984C255.285 162.515 254.773 162.305 254.055 162.355C253.357 162.404 252.879 162.683 252.621 163.191C252.369 163.699 252.264 164.253 252.306 164.853ZM252.068 182.36L265.299 159.909L267.799 159.734L254.567 182.185L252.068 182.36Z" fill="#20252E"/>
<line x1="212.218" y1="190.914" x2="276.651" y2="186.413" stroke="#20252E" stroke-width="0.922718" stroke-dasharray="1.85 1.85"/>
<g clip-path="url(#clip1_2448_27330)">
<path d="M285.393 165.915L285.007 160.393L279.484 160.778" stroke="#1A8FF2" stroke-width="1.84544" stroke-linecap="round" stroke-linejoin="round"/>
<path d="M285.007 160.393L279.014 167.286" stroke="#1A8FF2" stroke-width="1.84544" stroke-linecap="round" stroke-linejoin="round"/>
</g>
</g>
<g filter="url(#filter2_d_2448_27330)">
<mask id="path-15-inside-1_2448_27330" fill="white">
<path d="M65.9776 110.874C66.7422 93.2939 67.1245 84.5039 72.8235 79.28C78.5224 74.0561 87.3124 74.4384 104.892 75.203L319.065 84.5181C336.645 85.2827 345.435 85.665 350.659 91.3639C355.883 97.0629 355.501 105.853 354.736 123.433L354.258 134.431C353.493 152.011 353.111 160.801 347.412 166.025C341.713 171.249 332.923 170.866 315.343 170.102L101.17 160.787C83.5901 160.022 74.8001 159.64 69.5762 153.941C64.3524 148.242 64.7347 139.452 65.4993 121.872L65.9776 110.874Z"/>
</mask>
<path d="M65.9776 110.874C66.7422 93.2939 67.1245 84.5039 72.8235 79.28C78.5224 74.0561 87.3124 74.4384 104.892 75.203L319.065 84.5181C336.645 85.2827 345.435 85.665 350.659 91.3639C355.883 97.0629 355.501 105.853 354.736 123.433L354.258 134.431C353.493 152.011 353.111 160.801 347.412 166.025C341.713 171.249 332.923 170.866 315.343 170.102L101.17 160.787C83.5901 160.022 74.8001 159.64 69.5762 153.941C64.3524 148.242 64.7347 139.452 65.4993 121.872L65.9776 110.874Z" fill="#66AA61"/>
<path d="M66.7886 92.2275C67.2562 81.4758 76.3513 73.1389 87.103 73.6065L336.926 84.4721C347.678 84.9397 356.015 94.0348 355.547 104.786C355.975 94.9419 347.974 86.5983 337.676 86.1504L86.2103 75.2133C75.9122 74.7654 67.2168 82.3829 66.7886 92.2275ZM353.447 153.077C352.979 163.829 343.884 172.166 333.132 171.698L83.3093 160.833C72.5576 160.365 64.2207 151.27 64.6883 140.518C64.2601 150.363 72.2613 158.707 82.5594 159.154L334.025 170.091C344.323 170.539 353.019 162.922 353.447 153.077ZM63.8773 159.165L67.5996 73.5811L63.8773 159.165ZM356.358 86.1401L352.636 171.724L356.358 86.1401Z" fill="white" fill-opacity="0.2" mask="url(#path-15-inside-1_2448_27330)"/>
<path d="M92.2616 112.522L92.7883 100.413L97.2228 100.605C98.0821 100.643 98.7874 100.816 99.3387 101.124C99.8902 101.428 100.295 101.827 100.554 102.32C100.814 102.809 100.93 103.353 100.904 103.953C100.882 104.457 100.771 104.879 100.571 105.218C100.37 105.553 100.11 105.818 99.7896 106.013C99.4732 106.205 99.1277 106.34 98.753 106.418L98.7479 106.536C99.1491 106.574 99.5356 106.721 99.9075 106.978C100.284 107.231 100.588 107.582 100.821 108.031C101.055 108.479 101.158 109.017 101.13 109.643C101.103 110.262 100.933 110.812 100.62 111.292C100.311 111.768 99.849 112.137 99.2334 112.398C98.618 112.656 97.8412 112.764 96.903 112.724L92.2616 112.522ZM94.1568 111.034L96.7938 111.149C97.6689 111.187 98.303 111.045 98.6962 110.722C99.0893 110.4 99.2969 109.984 99.3191 109.476C99.3357 109.093 99.2544 108.738 99.0751 108.411C98.8959 108.083 98.631 107.817 98.2805 107.612C97.934 107.407 97.5163 107.294 97.0275 107.273L94.3255 107.156L94.1568 111.034ZM94.3874 105.731L96.8353 105.837C97.2452 105.855 97.6172 105.792 97.9512 105.649C98.2892 105.505 98.5609 105.296 98.7664 105.021C98.976 104.742 99.0893 104.407 99.1063 104.017C99.1281 103.516 98.9709 103.089 98.6348 102.734C98.2988 102.38 97.7681 102.187 97.0428 102.156L94.5476 102.047L94.3874 105.731ZM106.92 113.343C106.025 113.304 105.263 113.079 104.633 112.669C104.007 112.255 103.534 111.691 103.214 110.978C102.897 110.261 102.76 109.432 102.801 108.49C102.841 107.56 103.05 106.747 103.428 106.053C103.81 105.359 104.323 104.826 104.967 104.455C105.615 104.084 106.36 103.917 107.204 103.954C107.716 103.976 108.209 104.083 108.683 104.273C109.156 104.464 109.576 104.748 109.943 105.128C110.31 105.507 110.591 105.991 110.786 106.58C110.982 107.165 111.062 107.87 111.026 108.694L110.999 109.32L103.779 109.006L103.837 107.682L109.324 107.921C109.344 107.455 109.268 107.039 109.094 106.672C108.92 106.302 108.667 106.004 108.333 105.78C108.003 105.557 107.61 105.435 107.152 105.415C106.656 105.393 106.217 105.497 105.836 105.725C105.458 105.95 105.161 106.253 104.943 106.634C104.729 107.012 104.612 107.427 104.593 107.881L104.548 108.915C104.521 109.522 104.605 110.043 104.799 110.478C104.998 110.914 105.285 111.252 105.662 111.493C106.038 111.731 106.485 111.861 107.001 111.883C107.336 111.898 107.644 111.864 107.924 111.781C108.204 111.695 108.449 111.559 108.658 111.375C108.868 111.19 109.032 110.959 109.151 110.679L110.811 111.054C110.655 111.541 110.396 111.962 110.033 112.317C109.674 112.669 109.23 112.936 108.701 113.118C108.176 113.297 107.582 113.372 106.92 113.343ZM112.638 116.82L113.181 104.333L114.907 104.408L114.843 105.88L114.991 105.886C115.102 105.702 115.259 105.489 115.463 105.249C115.667 105.009 115.945 104.804 116.296 104.634C116.647 104.46 117.104 104.385 117.668 104.409C118.401 104.441 119.047 104.655 119.607 105.05C120.166 105.446 120.594 106 120.891 106.712C121.192 107.424 121.321 108.271 121.278 109.252C121.235 110.234 121.035 111.068 120.678 111.755C120.32 112.439 119.847 112.957 119.259 113.311C118.671 113.661 118.011 113.819 117.278 113.788C116.726 113.764 116.279 113.651 115.936 113.451C115.597 113.25 115.335 113.022 115.148 112.765C114.962 112.508 114.82 112.281 114.722 112.083L114.615 112.078L114.406 116.897L112.638 116.82ZM114.716 108.949C114.688 109.587 114.756 110.151 114.921 110.64C115.085 111.129 115.337 111.517 115.676 111.804C116.015 112.088 116.439 112.24 116.947 112.263C117.475 112.286 117.923 112.165 118.29 111.9C118.657 111.632 118.942 111.259 119.144 110.782C119.351 110.306 119.467 109.764 119.493 109.157C119.519 108.558 119.452 108.016 119.292 107.531C119.135 107.046 118.883 106.658 118.537 106.366C118.194 106.075 117.756 105.918 117.224 105.895C116.712 105.872 116.272 105.986 115.906 106.234C115.544 106.483 115.262 106.84 115.06 107.305C114.858 107.77 114.743 108.318 114.716 108.949ZM126.88 114.211C126.028 114.174 125.294 113.947 124.676 113.529C124.058 113.111 123.589 112.544 123.269 111.827C122.949 111.11 122.809 110.282 122.85 109.344C122.891 108.402 123.102 107.586 123.484 106.895C123.865 106.205 124.382 105.679 125.033 105.316C125.685 104.953 126.436 104.791 127.288 104.828C128.139 104.865 128.874 105.092 129.491 105.51C130.109 105.928 130.578 106.497 130.898 107.218C131.218 107.939 131.358 108.77 131.317 109.712C131.276 110.651 131.065 111.463 130.684 112.149C130.302 112.836 129.786 113.36 129.134 113.723C128.483 114.085 127.731 114.248 126.88 114.211ZM126.95 112.727C127.502 112.751 127.966 112.625 128.341 112.349C128.716 112.073 129.001 111.697 129.196 111.22C129.394 110.742 129.506 110.212 129.532 109.629C129.557 109.049 129.491 108.513 129.335 108.021C129.183 107.524 128.932 107.121 128.582 106.809C128.232 106.498 127.781 106.33 127.229 106.306C126.674 106.282 126.206 106.41 125.827 106.689C125.451 106.969 125.164 107.35 124.965 107.831C124.771 108.308 124.661 108.836 124.636 109.416C124.61 109.999 124.674 110.537 124.826 111.03C124.983 111.522 125.236 111.922 125.586 112.23C125.94 112.537 126.394 112.703 126.95 112.727ZM138.511 114.533L138.84 106.959L136.664 106.865C136.148 106.842 135.74 106.945 135.442 107.173C135.144 107.401 134.986 107.71 134.969 108.1C134.953 108.486 135.071 108.803 135.325 109.051C135.583 109.296 135.952 109.428 136.433 109.449L139.242 109.571L139.18 111.002L136.371 110.88C135.701 110.851 135.126 110.715 134.647 110.473C134.172 110.228 133.811 109.894 133.565 109.472C133.323 109.051 133.214 108.561 133.238 108.001C133.263 107.429 133.418 106.943 133.704 106.54C133.995 106.134 134.397 105.828 134.911 105.621C135.43 105.415 136.036 105.327 136.73 105.357L140.567 105.524L140.172 114.606L138.511 114.533ZM132.551 114.274L135.31 109.797L137.12 109.876L134.36 114.353L132.551 114.274ZM141.728 107.103L141.794 105.577L149.457 105.91L149.39 107.436L146.428 107.307L146.099 114.863L144.373 114.788L144.702 107.232L141.728 107.103ZM157.317 110.038L157.251 111.569L152.331 111.355L152.398 109.824L157.317 110.038ZM153.059 106.067L152.664 115.149L150.932 115.074L151.327 105.992L153.059 106.067ZM158.717 106.313L158.322 115.395L156.596 115.32L156.991 106.238L158.717 106.313ZM164.505 115.848C163.654 115.81 162.919 115.583 162.301 115.165C161.684 114.747 161.215 114.18 160.894 113.463C160.574 112.746 160.434 111.919 160.475 110.981C160.516 110.038 160.727 109.222 161.109 108.532C161.49 107.842 162.007 107.315 162.659 106.953C163.31 106.59 164.062 106.427 164.913 106.464C165.765 106.501 166.499 106.729 167.117 107.146C167.734 107.564 168.203 108.134 168.523 108.854C168.844 109.575 168.983 110.407 168.942 111.349C168.901 112.287 168.69 113.099 168.309 113.786C167.928 114.472 167.411 114.996 166.76 115.359C166.108 115.722 165.356 115.885 164.505 115.848ZM164.576 114.364C165.127 114.388 165.591 114.262 165.966 113.986C166.342 113.71 166.627 113.333 166.821 112.856C167.02 112.379 167.131 111.849 167.157 111.265C167.182 110.686 167.116 110.15 166.96 109.657C166.808 109.161 166.557 108.757 166.207 108.446C165.857 108.134 165.407 107.967 164.855 107.943C164.299 107.918 163.831 108.046 163.452 108.326C163.076 108.606 162.789 108.986 162.591 109.467C162.396 109.944 162.286 110.473 162.261 111.052C162.236 111.636 162.299 112.174 162.452 112.666C162.608 113.159 162.861 113.559 163.211 113.866C163.565 114.174 164.02 114.34 164.576 114.364ZM174.537 116.284C173.658 116.246 172.91 116.014 172.293 115.588C171.68 115.158 171.219 114.584 170.911 113.863C170.602 113.143 170.468 112.327 170.508 111.417C170.548 110.495 170.757 109.688 171.134 108.998C171.512 108.303 172.025 107.771 172.673 107.4C173.321 107.029 174.072 106.862 174.928 106.9C175.618 106.93 176.227 107.085 176.756 107.364C177.285 107.64 177.705 108.014 178.016 108.485C178.331 108.957 178.507 109.5 178.544 110.114L176.823 110.039C176.747 109.609 176.546 109.233 176.221 108.911C175.899 108.589 175.456 108.415 174.893 108.391C174.4 108.37 173.963 108.481 173.581 108.725C173.203 108.965 172.901 109.319 172.676 109.787C172.45 110.251 172.323 110.807 172.295 111.453C172.266 112.115 172.342 112.691 172.522 113.181C172.702 113.671 172.97 114.055 173.325 114.335C173.684 114.616 174.114 114.767 174.614 114.788C174.949 114.803 175.256 114.755 175.533 114.645C175.814 114.531 176.053 114.361 176.248 114.137C176.447 113.912 176.592 113.638 176.681 113.314L178.401 113.389C178.313 113.974 178.099 114.49 177.759 114.937C177.42 115.384 176.977 115.728 176.429 115.969C175.885 116.21 175.255 116.315 174.537 116.284ZM179.808 108.759L179.874 107.233L187.537 107.567L187.471 109.092L184.509 108.963L184.18 116.52L182.454 116.445L182.782 108.888L179.808 108.759ZM190.602 110.828L193.239 110.942C194.35 110.991 195.194 111.304 195.769 111.882C196.344 112.46 196.613 113.184 196.575 114.055C196.55 114.623 196.394 115.128 196.106 115.569C195.818 116.011 195.411 116.352 194.883 116.594C194.355 116.832 193.721 116.935 192.98 116.902L189.012 116.73L189.407 107.648L191.14 107.723L190.811 115.28L193.046 115.377C193.554 115.399 193.978 115.285 194.317 115.035C194.656 114.781 194.834 114.448 194.852 114.034C194.871 113.596 194.723 113.232 194.408 112.942C194.093 112.648 193.681 112.49 193.172 112.468L190.535 112.353L190.602 110.828ZM91.1637 134.495L91.5587 125.413L98.9673 125.735L98.5723 134.817L96.8399 134.742L97.1686 127.185L93.213 127.013L92.8843 134.57L91.1637 134.495ZM100.788 138.326L101.331 125.838L103.057 125.913L102.993 127.385L103.141 127.392C103.252 127.207 103.409 126.995 103.613 126.755C103.817 126.515 104.095 126.31 104.446 126.139C104.797 125.965 105.254 125.89 105.818 125.915C106.551 125.947 107.197 126.16 107.757 126.556C108.316 126.951 108.744 127.505 109.041 128.217C109.342 128.929 109.471 129.776 109.428 130.757C109.385 131.739 109.185 132.573 108.828 133.261C108.47 133.944 107.997 134.463 107.409 134.816C106.821 135.166 106.161 135.325 105.428 135.293C104.876 135.269 104.429 135.157 104.086 134.956C103.747 134.756 103.484 134.527 103.298 134.27C103.112 134.013 102.97 133.786 102.872 133.588L102.765 133.584L102.556 138.402L100.788 138.326ZM102.866 130.454C102.838 131.093 102.906 131.657 103.071 132.146C103.235 132.635 103.487 133.023 103.826 133.31C104.165 133.593 104.589 133.746 105.097 133.768C105.625 133.791 106.073 133.67 106.44 133.406C106.807 133.137 107.092 132.765 107.294 132.288C107.5 131.811 107.617 131.269 107.643 130.662C107.669 130.063 107.602 129.521 107.441 129.036C107.285 128.551 107.033 128.163 106.686 127.872C106.344 127.58 105.906 127.423 105.374 127.4C104.862 127.378 104.422 127.491 104.056 127.74C103.694 127.988 103.412 128.345 103.21 128.811C103.008 129.276 102.893 129.824 102.866 130.454ZM115.03 135.716C114.178 135.679 113.444 135.452 112.826 135.034C112.208 134.616 111.739 134.049 111.419 133.332C111.099 132.615 110.959 131.788 111 130.85C111.041 129.907 111.252 129.091 111.634 128.401C112.015 127.711 112.532 127.184 113.183 126.821C113.835 126.459 114.586 126.296 115.438 126.333C116.289 126.37 117.024 126.598 117.641 127.015C118.259 127.433 118.728 128.003 119.048 128.723C119.368 129.444 119.508 130.276 119.467 131.218C119.426 132.156 119.215 132.968 118.834 133.655C118.452 134.341 117.936 134.865 117.284 135.228C116.633 135.591 115.881 135.754 115.03 135.716ZM115.1 134.233C115.652 134.257 116.116 134.131 116.491 133.855C116.866 133.579 117.151 133.202 117.346 132.725C117.544 132.248 117.656 131.718 117.681 131.134C117.707 130.555 117.641 130.019 117.485 129.526C117.333 129.03 117.082 128.626 116.732 128.315C116.382 128.003 115.931 127.835 115.379 127.811C114.824 127.787 114.356 127.915 113.977 128.195C113.601 128.475 113.314 128.855 113.115 129.336C112.921 129.813 112.811 130.342 112.786 130.921C112.76 131.505 112.824 132.043 112.976 132.535C113.133 133.027 113.386 133.427 113.736 133.735C114.09 134.043 114.544 134.208 115.1 134.233ZM120.244 138.384L120.424 134.233L121.163 134.265C121.36 134.1 121.529 133.9 121.669 133.665C121.814 133.431 121.938 133.15 122.044 132.823C122.153 132.496 122.248 132.113 122.33 131.674C122.413 131.231 122.49 130.725 122.562 130.156L122.993 126.78L129.166 127.049L128.838 134.599L130.233 134.66L130.053 138.811L128.326 138.735L128.44 136.116L122.108 135.841L121.994 138.46L120.244 138.384ZM123.055 134.348L127.111 134.524L127.374 128.487L124.512 128.363L124.242 130.229C124.109 131.179 123.959 132.002 123.791 132.697C123.622 133.389 123.377 133.939 123.055 134.348ZM134.529 136.582C133.953 136.557 133.438 136.428 132.982 136.195C132.526 135.958 132.171 135.629 131.917 135.207C131.667 134.785 131.555 134.277 131.581 133.682C131.603 133.169 131.72 132.752 131.931 132.429C132.143 132.107 132.42 131.856 132.764 131.678C133.107 131.499 133.488 131.369 133.906 131.289C134.324 131.208 134.749 131.152 135.181 131.119C135.728 131.08 136.172 131.048 136.512 131.023C136.853 130.995 137.103 130.936 137.26 130.848C137.418 130.76 137.502 130.61 137.511 130.397L137.513 130.356C137.535 129.839 137.407 129.433 137.128 129.137C136.852 128.84 136.429 128.68 135.857 128.655C135.262 128.629 134.787 128.74 134.433 128.99C134.082 129.235 133.835 129.515 133.691 129.828L132.046 129.378C132.267 128.834 132.574 128.401 132.968 128.079C133.365 127.753 133.815 127.523 134.319 127.391C134.822 127.255 135.348 127.199 135.896 127.223C136.258 127.239 136.641 127.299 137.043 127.403C137.449 127.504 137.825 127.674 138.17 127.914C138.519 128.154 138.799 128.488 139.009 128.916C139.22 129.34 139.311 129.883 139.282 130.545L139.019 136.576L137.293 136.501L137.347 135.259L137.276 135.256C137.152 135.48 136.971 135.697 136.732 135.908C136.494 136.119 136.192 136.289 135.827 136.42C135.462 136.55 135.03 136.604 134.529 136.582ZM134.975 135.18C135.464 135.201 135.886 135.123 136.241 134.945C136.6 134.767 136.877 134.526 137.072 134.223C137.271 133.915 137.378 133.582 137.394 133.224L137.445 132.053C137.379 132.113 137.254 132.167 137.071 132.214C136.891 132.258 136.686 132.294 136.456 132.324C136.226 132.349 136.001 132.373 135.783 132.395C135.565 132.414 135.383 132.429 135.236 132.443C134.891 132.471 134.575 132.53 134.287 132.621C134.002 132.711 133.771 132.849 133.593 133.035C133.419 133.217 133.326 133.465 133.312 133.781C133.293 134.218 133.44 134.556 133.754 134.795C134.067 135.03 134.474 135.158 134.975 135.18ZM140.795 136.653L144.515 132.159L141.231 127.573L143.289 127.663L145.933 131.557L146.566 131.585L146.73 127.813L148.498 127.889L148.334 131.662L148.949 131.688L151.921 128.038L153.979 128.128L150.327 132.412L153.625 137.211L151.526 137.12L148.859 133.213L148.267 133.187L148.103 136.971L146.335 136.894L146.5 133.11L145.908 133.085L142.894 136.745L140.795 136.653ZM157.263 134.888L161.553 128.457L163.457 128.54L163.062 137.622L161.329 137.547L161.617 130.936L157.344 137.373L155.423 137.29L155.818 128.208L157.55 128.283L157.263 134.888Z" fill="white"/>
<rect x="237.691" y="101.831" width="71" height="40" rx="6.24969" transform="rotate(2.4904 237.691 101.831)" fill="#66AA61"/>
<path d="M247.929 109.711C249.087 109.769 250.206 110.023 251.284 110.473C252.371 110.915 253.336 111.605 254.18 112.542C255.024 113.471 255.674 114.696 256.129 116.216C256.584 117.737 256.763 119.601 256.667 121.808C256.585 123.89 256.283 125.741 255.762 127.361C255.25 128.974 254.555 130.326 253.679 131.417C252.802 132.508 251.767 133.324 250.575 133.865C249.382 134.405 248.057 134.644 246.598 134.58C245.069 134.514 243.726 134.155 242.569 133.505C241.421 132.855 240.507 131.993 239.826 130.921C239.146 129.849 238.753 128.639 238.646 127.292L242.962 127.48C243.141 128.451 243.557 129.235 244.21 129.832C244.872 130.422 245.723 130.739 246.763 130.784C248.443 130.858 249.767 130.185 250.737 128.765C251.707 127.346 252.249 125.34 252.361 122.746L252.196 122.739C251.779 123.416 251.253 123.994 250.616 124.471C249.979 124.941 249.265 125.293 248.473 125.527C247.689 125.762 246.863 125.86 245.996 125.822C244.577 125.761 243.314 125.366 242.209 124.639C241.111 123.912 240.256 122.943 239.646 121.731C239.043 120.52 238.77 119.154 238.829 117.632C238.897 116.055 239.321 114.656 240.101 113.434C240.889 112.205 241.953 111.256 243.294 110.587C244.634 109.911 246.179 109.619 247.929 109.711ZM247.786 113.259C246.935 113.222 246.157 113.397 245.453 113.785C244.757 114.166 244.197 114.702 243.772 115.395C243.355 116.079 243.128 116.855 243.09 117.723C243.06 118.582 243.22 119.371 243.568 120.089C243.923 120.808 244.423 121.386 245.068 121.825C245.72 122.264 246.476 122.502 247.335 122.54C247.974 122.567 248.574 122.471 249.137 122.251C249.699 122.03 250.195 121.712 250.624 121.296C251.061 120.873 251.406 120.387 251.659 119.837C251.92 119.287 252.06 118.701 252.079 118.078C252.115 117.25 251.951 116.477 251.587 115.758C251.232 115.04 250.724 114.453 250.064 113.998C249.413 113.543 248.653 113.297 247.786 113.259ZM268.452 135.531C266.875 135.462 265.476 135.105 264.257 134.46C263.037 133.807 262.083 132.944 261.395 131.871C260.715 130.799 260.381 129.592 260.392 128.249L264.649 128.435C264.685 129.431 265.079 130.262 265.832 130.927C266.585 131.583 267.51 131.936 268.606 131.983C269.465 132.021 270.238 131.857 270.926 131.492C271.613 131.127 272.165 130.602 272.582 129.917C272.999 129.232 273.223 128.44 273.254 127.541C273.301 126.627 273.144 125.807 272.78 125.08C272.417 124.353 271.901 123.774 271.233 123.342C270.565 122.902 269.785 122.663 268.894 122.624C268.169 122.585 267.45 122.688 266.737 122.933C266.023 123.179 265.451 123.517 265.022 123.949L261.089 123.126L262.897 110.693L276.946 111.304L276.786 114.97L266.368 114.517L265.391 120.908L265.533 120.914C266.005 120.406 266.659 119.996 267.494 119.684C268.329 119.365 269.236 119.227 270.213 119.27C271.68 119.333 272.973 119.737 274.094 120.481C275.215 121.217 276.081 122.202 276.69 123.437C277.3 124.672 277.571 126.066 277.504 127.619C277.434 129.22 277.001 130.631 276.206 131.852C275.419 133.065 274.355 134.003 273.015 134.663C271.683 135.316 270.162 135.605 268.452 135.531ZM294.265 131.772L294.321 130.495C294.362 129.557 294.596 128.702 295.025 127.931C295.461 127.16 296.072 126.551 296.858 126.103C297.643 125.656 298.58 125.456 299.668 125.503C300.788 125.552 301.715 125.833 302.451 126.347C303.187 126.853 303.731 127.508 304.083 128.313C304.443 129.119 304.603 129.995 304.562 130.941L304.506 132.218C304.465 133.156 304.231 134.011 303.802 134.782C303.374 135.553 302.767 136.162 301.981 136.61C301.203 137.058 300.263 137.258 299.159 137.21C298.055 137.162 297.131 136.881 296.388 136.367C295.644 135.853 295.092 135.193 294.732 134.387C294.38 133.582 294.224 132.711 294.265 131.772ZM297.407 130.629L297.352 131.907C297.325 132.529 297.45 133.107 297.727 133.641C298.003 134.174 298.52 134.457 299.277 134.49C300.042 134.523 300.577 134.29 300.883 133.79C301.198 133.282 301.369 132.713 301.396 132.082L301.452 130.805C301.479 130.175 301.366 129.593 301.113 129.061C300.86 128.521 300.339 128.233 299.551 128.199C298.81 128.167 298.274 128.408 297.944 128.923C297.613 129.43 297.435 129.999 297.407 130.629ZM282.558 117.378L282.613 116.1C282.655 115.154 282.893 114.296 283.33 113.525C283.766 112.754 284.377 112.149 285.162 111.709C285.948 111.262 286.885 111.061 287.972 111.109C289.084 111.157 290.008 111.438 290.744 111.952C291.488 112.458 292.036 113.114 292.388 113.919C292.74 114.724 292.895 115.6 292.854 116.546L292.799 117.823C292.757 118.769 292.523 119.628 292.094 120.399C291.674 121.163 291.071 121.764 290.286 122.204C289.501 122.644 288.56 122.84 287.464 122.792C286.353 122.744 285.425 122.467 284.681 121.96C283.944 121.454 283.396 120.799 283.037 119.993C282.677 119.188 282.517 118.316 282.558 117.378ZM285.724 116.236L285.668 117.513C285.641 118.144 285.761 118.725 286.03 119.258C286.308 119.784 286.825 120.063 287.582 120.096C288.338 120.129 288.87 119.895 289.176 119.395C289.49 118.888 289.661 118.318 289.689 117.688L289.744 116.411C289.772 115.78 289.659 115.198 289.405 114.666C289.152 114.126 288.636 113.839 287.855 113.805C287.106 113.772 286.571 114.014 286.248 114.529C285.925 115.044 285.751 115.613 285.724 116.236ZM283.106 135.837L300.809 112.342L303.765 112.471L286.062 135.965L283.106 135.837Z" fill="white"/>
<line x1="235.976" y1="141.273" x2="306.909" y2="144.358" stroke="white" stroke-width="1.04162" stroke-dasharray="2.08 2.08"/>
<g clip-path="url(#clip2_2448_27330)">
<path d="M328.035 114.101L328.306 107.857L322.063 107.585" stroke="white" stroke-width="2.08323" stroke-linecap="round" stroke-linejoin="round"/>
<path d="M328.306 107.858L320.705 114.825" stroke="white" stroke-width="2.08323" stroke-linecap="round" stroke-linejoin="round"/>
</g>
</g>
<defs>
<filter id="filter0_d_2448_27330" x="-4.55664" y="-27.1567" width="358.516" height="175.703" filterUnits="userSpaceOnUse" color-interpolation-filters="sRGB">
<feFlood flood-opacity="0" result="BackgroundImageFix"/>
<feColorMatrix in="SourceAlpha" type="matrix" values="0 0 0 0 0 0 0 0 0 0 0 0 0 0 0 0 0 0 127 0" result="hardAlpha"/>
<feOffset/>
<feGaussianBlur stdDeviation="20.667"/>
<feComposite in2="hardAlpha" operator="out"/>
<feColorMatrix type="matrix" values="0 0 0 0 0.0478249 0 0 0 0 0.143023 0 0 0 0 0.291108 0 0 0 0.1 0"/>
<feBlend mode="normal" in2="BackgroundImageFix" result="effect1_dropShadow_2448_27330"/>
<feBlend mode="normal" in="SourceGraphic" in2="effect1_dropShadow_2448_27330" result="shape"/>
</filter>
<filter id="filter1_d_2448_27330" x="-4.23242" y="92.2212" width="357.549" height="170.276" filterUnits="userSpaceOnUse" color-interpolation-filters="sRGB">
<feFlood flood-opacity="0" result="BackgroundImageFix"/>
<feColorMatrix in="SourceAlpha" type="matrix" values="0 0 0 0 0 0 0 0 0 0 0 0 0 0 0 0 0 0 127 0" result="hardAlpha"/>
<feOffset/>
<feGaussianBlur stdDeviation="20.667"/>
<feComposite in2="hardAlpha" operator="out"/>
<feColorMatrix type="matrix" values="0 0 0 0 0.0478249 0 0 0 0 0.143023 0 0 0 0 0.291108 0 0 0 0.1 0"/>
<feBlend mode="normal" in2="BackgroundImageFix" result="effect1_dropShadow_2448_27330"/>
<feBlend mode="normal" in="SourceGraphic" in2="effect1_dropShadow_2448_27330" result="shape"/>
</filter>
<filter id="filter2_d_2448_27330" x="30.9945" y="41.5207" width="358.245" height="163.907" filterUnits="userSpaceOnUse" color-interpolation-filters="sRGB">
<feFlood flood-opacity="0" result="BackgroundImageFix"/>
<feColorMatrix in="SourceAlpha" type="matrix" values="0 0 0 0 0 0 0 0 0 0 0 0 0 0 0 0 0 0 127 0" result="hardAlpha"/>
<feOffset dy="0.82206"/>
<feGaussianBlur stdDeviation="16.4412"/>
<feColorMatrix type="matrix" values="0 0 0 0 0.0140565 0 0 0 0 0.0722582 0 0 0 0 0.159561 0 0 0 0.21 0"/>
<feBlend mode="normal" in2="BackgroundImageFix" result="effect1_dropShadow_2448_27330"/>
<feBlend mode="normal" in="SourceGraphic" in2="effect1_dropShadow_2448_27330" result="shape"/>
</filter>
<clipPath id="clip0_2448_27330">
<rect width="10.1499" height="10.1499" fill="white" transform="translate(278.355 58.9585) rotate(5.17209)"/>
</clipPath>
<clipPath id="clip1_2448_27330">
<rect width="10.1499" height="10.1499" fill="white" transform="translate(276.594 159.13) rotate(-3.99597)"/>
</clipPath>
<clipPath id="clip2_2448_27330">
<rect width="11.4578" height="11.4578" fill="white" transform="translate(319.031 105.369) rotate(2.4904)"/>
</clipPath>
</defs>
</svg>
